<svg width="22" height="22" viewBox="0 0 22 22" fill="none" xmlns="http://www.w3.org/2000/svg">
<path d="M11 3.62225C13.403 3.62225 13.688 3.63125 14.6375 3.67475C17.0765 3.78575 18.2157 4.943 18.3267 7.364C18.3702 8.31275 18.3785 8.59775 18.3785 11.0008C18.3785 13.4045 18.3695 13.6888 18.3267 14.6375C18.215 17.0563 17.0788 18.2157 14.6375 18.3267C13.688 18.3702 13.4045 18.3793 11 18.3793C8.597 18.3793 8.312 18.3702 7.36325 18.3267C4.91825 18.215 3.785 17.0525 3.674 14.6368C3.6305 13.688 3.6215 13.4037 3.6215 11C3.6215 8.597 3.63125 8.31275 3.674 7.36325C3.78575 4.943 4.922 3.785 7.36325 3.674C8.31275 3.63125 8.597 3.62225 11 3.62225V3.62225ZM11 2C8.55575 2 8.24975 2.0105 7.28975 2.054C4.02125 2.204 2.20475 4.0175 2.05475 7.289C2.0105 8.24975 2 8.55575 2 11C2 13.4443 2.0105 13.751 2.054 14.711C2.204 17.9795 4.0175 19.796 7.289 19.946C8.24975 19.9895 8.55575 20 11 20C13.4443 20 13.751 19.9895 14.711 19.946C17.9765 19.796 19.7975 17.9825 19.9453 14.711C19.9895 13.751 20 13.4443 20 11C20 8.55575 19.9895 8.24975 19.946 7.28975C19.799 4.02425 17.9832 2.20475 14.7117 2.05475C13.751 2.0105 13.4443 2 11 2V2ZM11 6.3785C8.44775 6.3785 6.3785 8.44775 6.3785 11C6.3785 13.5523 8.44775 15.6223 11 15.6223C13.5523 15.6223 15.6215 13.553 15.6215 11C15.6215 8.44775 13.5523 6.3785 11 6.3785ZM11 14C9.34325 14 8 12.6575 8 11C8 9.34325 9.34325 8 11 8C12.6568 8 14 9.34325 14 11C14 12.6575 12.6568 14 11 14ZM15.8045 5.11625C15.2075 5.11625 14.7238 5.6 14.7238 6.19625C14.7238 6.7925 15.2075 7.27625 15.8045 7.27625C16.4008 7.27625 16.8837 6.7925 16.8837 6.19625C16.8837 5.6 16.4008 5.11625 15.8045 5.11625Z" fill="#828D9E"/>
</svg>
