<svg width="25" height="25" viewBox="0 0 25 25" fill="none" xmlns="http://www.w3.org/2000/svg">
<g clip-path="url(#clip0_6361_18824)">
<path d="M19.5546 2.92448C17.8922 1.32864 15.5917 0.449707 13.0768 0.449707C9.23527 0.449707 6.87252 2.02442 5.56691 3.34536C3.95781 4.97327 3.03516 7.13485 3.03516 9.27591C3.03516 11.9642 4.1596 14.0275 6.0426 14.7951C6.16901 14.8469 6.29622 14.873 6.42093 14.873C6.81818 14.873 7.13294 14.613 7.24199 14.1961C7.30557 13.9569 7.45283 13.3668 7.51689 13.1106C7.65396 12.6048 7.54321 12.3614 7.24425 12.0091C6.69965 11.3647 6.44603 10.6027 6.44603 9.61099C6.44603 6.66529 8.63944 3.53465 12.7047 3.53465C15.9304 3.53465 17.9341 5.36798 17.9341 8.3191C17.9341 10.1814 17.533 11.906 16.8043 13.1756C16.298 14.0577 15.4077 15.1092 14.041 15.1092C13.45 15.1092 12.9191 14.8665 12.5841 14.4432C12.2676 14.043 12.1633 13.5262 12.2906 12.9875C12.4344 12.3788 12.6304 11.7439 12.8202 11.1302C13.1663 10.0092 13.4934 8.9504 13.4934 8.10566C13.4934 6.66081 12.6052 5.68995 11.2833 5.68995C9.60332 5.68995 8.28719 7.39621 8.28719 9.57443C8.28719 10.6427 8.57109 11.4417 8.69963 11.7485C8.48798 12.6452 7.2302 17.9761 6.99162 18.9814C6.85366 19.5682 6.02265 24.2031 7.39812 24.5727C8.94353 24.9879 10.3249 20.4738 10.4656 19.9637C10.5795 19.5489 10.9782 17.9802 11.2226 17.016C11.9686 17.7346 13.1698 18.2204 14.3387 18.2204C16.5421 18.2204 18.5238 17.2288 19.9186 15.4286C21.2713 13.6824 22.0163 11.2486 22.0163 8.57588C22.0162 6.48643 21.1189 4.4265 19.5546 2.92448Z" fill="#FCFBFB"/>
</g>
<defs>
<clipPath id="clip0_6361_18824">
<rect width="24.15" height="24.15" fill="white" transform="translate(0.450195 0.449707)"/>
</clipPath>
</defs>
</svg>
