<svg width="22" height="22" viewBox="0 0 22 22" fill="none" xmlns="http://www.w3.org/2000/svg">
<path fill-rule="evenodd" clip-rule="evenodd" d="M20 4.89389C19.3375 5.21572 18.6258 5.4323 17.8789 5.52998C18.6417 5.0302 19.2267 4.23887 19.5023 3.29533C18.7892 3.75801 17.9986 4.09423 17.1568 4.27597C16.4832 3.4907 15.5237 3 14.4618 3C12.4223 3 10.7691 4.80908 10.7691 7.03919C10.7691 7.35572 10.8024 7.66468 10.8647 7.95925C7.79578 7.79114 5.07511 6.18273 3.25303 3.73832C2.93596 4.33504 2.75389 5.02868 2.75389 5.77003C2.75389 7.17095 3.40533 8.40754 4.39598 9.13148C3.79093 9.11027 3.22118 8.92853 2.72343 8.62639C2.72343 8.64381 2.72343 8.65971 2.72343 8.67713C2.72343 10.6346 3.99585 12.2673 5.6857 12.6376C5.37625 12.7299 5.0495 12.7792 4.71236 12.7792C4.4749 12.7792 4.24299 12.7534 4.018 12.7072C4.48806 14.3118 5.85185 15.4803 7.46764 15.5128C6.20422 16.5965 4.61198 17.2424 2.88127 17.2424C2.58359 17.2424 2.28937 17.2235 2 17.1856C3.63448 18.3313 5.57494 19 7.66078 19C11.1385 19 14.4553 17.8039 16.2336 15.5128C17.9286 13.329 18.1668 10.1122 18.1668 7.50717C18.1668 7.33224 18.1634 7.15808 18.1565 6.98467C18.8785 6.41445 19.505 5.70339 20 4.89389Z" fill="#828D9E"/>
</svg>
