<svg width="181" height="213" viewBox="0 0 181 213" fill="none" xmlns="http://www.w3.org/2000/svg">
<path d="M0 10C0 4.47716 4.47715 0 10 0H171C176.523 0 181 4.47715 181 10V203C181 208.523 176.523 213 171 213H10C4.47715 213 0 208.523 0 203V10Z" fill="#4C3434"/>
<path fill-rule="evenodd" clip-rule="evenodd" d="M165 13.75C165 13.1977 164.552 12.75 164 12.75C163.448 12.75 163 13.1977 163 13.75V18H158.75C158.198 18 157.75 18.4477 157.75 19C157.75 19.5523 158.198 20 158.75 20H163V24.25C163 24.8023 163.448 25.25 164 25.25C164.552 25.25 165 24.8023 165 24.25V20H169.25C169.802 20 170.25 19.5523 170.25 19C170.25 18.4477 169.802 18 169.25 18H165V13.75Z" fill="#845C5C"/>
<path d="M9 21C9 18.2386 11.2386 16 14 16H80C82.7614 16 85 18.2386 85 21V21C85 23.7614 82.7614 26 80 26H14C11.2386 26 9 23.7614 9 21V21Z" fill="#845C5C"/>
<path d="M9 47.5C9 46.1193 10.1193 45 11.5 45H44.5C45.8807 45 47 46.1193 47 47.5V47.5C47 48.8807 45.8807 50 44.5 50H11.5C10.1193 50 9 48.8807 9 47.5V47.5Z" fill="#976969"/>
<path d="M9 69.5C9 68.1193 10.1193 67 11.5 67H44.5C45.8807 67 47 68.1193 47 69.5V69.5C47 70.8807 45.8807 72 44.5 72H11.5C10.1193 72 9 70.8807 9 69.5V69.5Z" fill="#F3CB48"/>
<path d="M9 91.5C9 90.1193 10.1193 89 11.5 89H44.5C45.8807 89 47 90.1193 47 91.5V91.5C47 92.8807 45.8807 94 44.5 94H11.5C10.1193 94 9 92.8807 9 91.5V91.5Z" fill="#976969"/>
<path d="M9 113.5C9 112.119 10.1193 111 11.5 111H44.5C45.8807 111 47 112.119 47 113.5V113.5C47 114.881 45.8807 116 44.5 116H11.5C10.1193 116 9 114.881 9 113.5V113.5Z" fill="#976969"/>
<path d="M9 135.5C9 134.119 10.1193 133 11.5 133H44.5C45.8807 133 47 134.119 47 135.5V135.5C47 136.881 45.8807 138 44.5 138H11.5C10.1193 138 9 136.881 9 135.5V135.5Z" fill="#976969"/>
<path d="M9 157.5C9 156.119 10.1193 155 11.5 155H44.5C45.8807 155 47 156.119 47 157.5V157.5C47 158.881 45.8807 160 44.5 160H11.5C10.1193 160 9 158.881 9 157.5V157.5Z" fill="#976969"/>
<path d="M9 179.5C9 178.119 10.1193 177 11.5 177H44.5C45.8807 177 47 178.119 47 179.5V179.5C47 180.881 45.8807 182 44.5 182H11.5C10.1193 182 9 180.881 9 179.5V179.5Z" fill="#976969"/>
<path d="M9 201.5C9 200.119 10.1193 199 11.5 199H44.5C45.8807 199 47 200.119 47 201.5V201.5C47 202.881 45.8807 204 44.5 204H11.5C10.1193 204 9 202.881 9 201.5V201.5Z" fill="#976969"/>
<path d="M65 49C65 46.2386 67.2386 44 70 44H167C169.761 44 172 46.2386 172 49V75C172 77.7614 169.761 80 167 80H70C67.2386 80 65 77.7614 65 75V49Z" fill="#845C5C"/>
<path d="M65 90C65 87.2386 67.2386 85 70 85H167C169.761 85 172 87.2386 172 90V116C172 118.761 169.761 121 167 121H70C67.2386 121 65 118.761 65 116V90Z" fill="#DBB165"/>
<path d="M65 131C65 128.239 67.2386 126 70 126H167C169.761 126 172 128.239 172 131V157C172 159.761 169.761 162 167 162H70C67.2386 162 65 159.761 65 157V131Z" fill="#845C5C"/>
<path d="M65 172C65 169.239 67.2386 167 70 167H167C169.761 167 172 169.239 172 172V198C172 200.761 169.761 203 167 203H70C67.2386 203 65 200.761 65 198V172Z" fill="#845C5C"/>
<path d="M122.625 98.1933C100.32 102.542 76.9146 102.485 68 101.913C79.1906 104.774 104.303 110.153 115.228 108.78C128.885 107.063 145.101 101.913 153.068 99.6239C159.441 97.7928 166.345 98.4794 169 99.0516C162.836 96.9535 144.931 93.8444 122.625 98.1933Z" fill="#FCFAFB"/>
<path d="M122.625 183.506C100.32 184.51 76.9146 184.497 68 184.364C79.1906 185.025 104.303 186.266 115.228 185.949C128.885 185.553 145.101 184.364 153.068 183.836C159.441 183.414 166.345 183.572 169 183.704C162.836 183.22 144.931 182.503 122.625 183.506Z" fill="#F0E3DC"/>
<path fill-rule="evenodd" clip-rule="evenodd" d="M163.964 59.7282C157.041 59.2256 138.443 59.2247 119.602 63.2564C100.618 67.3188 81.2319 64.9512 73.8877 63.2546L74.1128 62.2803C81.3542 63.9531 100.587 66.3027 119.393 62.2785C138.342 58.2235 157.037 58.2227 164.036 58.7308L163.964 59.7282Z" fill="#F0E3DC"/>
<path fill-rule="evenodd" clip-rule="evenodd" d="M163.892 144.726C157.044 144.228 138.543 144.226 119.811 148.234C100.648 152.335 81.1096 149.949 73.6626 148.229L74.3378 145.306C81.4765 146.955 100.557 149.287 119.184 145.301C138.242 141.222 157.034 141.22 164.109 141.733L163.892 144.726Z" fill="#F0E3DC"/>
</svg>
