<svg width="220" height="57" viewBox="0 0 220 57" fill="none" xmlns="http://www.w3.org/2000/svg">
<path d="M84.6417 35.0704C81.5829 33.4294 78.1952 35.1688 76.6823 36.2027C76.5836 35.3329 76.5343 34.4468 76.4849 34.135C76.378 32.5997 76.378 31.0589 76.4849 29.5237C76.4849 28.9985 76.4849 28.4734 76.5836 27.8826C76.6987 26.6847 76.7974 25.4375 76.9454 24.2395C77.0724 23.2718 77.2814 22.3166 77.5703 21.3841C77.7841 20.6621 77.8828 19.94 78.0472 19.2672C78.1723 18.9657 78.1772 18.6279 78.0611 18.3229C77.9449 18.0179 77.7164 17.7687 77.4223 17.6262C76.8107 17.2114 76.0651 17.0415 75.3338 17.1503C74.9444 17.2086 74.5635 17.3133 74.1991 17.4621C74.0551 17.5317 73.9286 17.6328 73.829 17.7578C73.7294 17.8827 73.6591 18.0284 73.6235 18.1841C73.5896 18.4396 73.5176 18.6885 73.4097 18.9226L73.0972 20.5636C72.9637 22.2332 72.3969 23.8394 71.4527 25.2242C70.2687 27.0457 67.4566 31.1975 67.2428 31.3945C67.029 31.5914 66.881 31.9688 66.5686 31.8704C64.924 31.296 67.4072 22.0241 67.769 20.5636C68.2295 18.578 65.3681 18.02 64.184 18.9226C63.918 19.3421 63.7079 19.7945 63.5591 20.2682C62.7408 22.7968 62.1896 25.4038 61.9146 28.0467C61.9146 28.2273 61.9146 28.3914 61.9146 28.5719C59.711 32.494 55.8464 39.452 55.4517 39.5668C55.057 39.6817 55.0899 39.5668 54.9419 39.255C54.7481 38.8512 54.6577 38.4058 54.6788 37.9586C54.8718 35.5026 55.2012 33.0592 55.6655 30.6396C55.9057 30.0696 55.9687 29.4407 55.8464 28.8344C55.4353 27.8498 54.2019 27.4396 53.4125 27.0293C53.2481 26.9144 51.324 26.0447 51.324 25.979C51.6082 25.4928 51.8345 24.9751 51.9982 24.4365C52.4218 23.179 52.5124 21.8336 52.2614 20.5308C52.0846 19.441 51.4961 18.4603 50.6168 17.7903C49.913 17.3406 49.064 17.1752 48.2424 17.3276C47.4207 17.48 46.688 17.9388 46.1931 18.6108C45.6319 19.5002 45.3706 20.5455 45.4475 21.5937C45.5245 22.642 45.9356 23.6382 46.6207 24.4365C47.1798 24.9944 48.5448 26.0775 49.3012 26.7503C48.1336 28.7032 44.9433 33.9873 44.0553 35.4314L42.9699 37.0724C42.0819 38.533 39.9111 41.8971 39.4342 41.8971C37.7897 41.8971 36.9346 33.3473 37.247 32.8714C37.5595 32.3955 40.2729 29.8683 41.309 28.457C41.5765 28.0778 41.7519 27.6416 41.8211 27.1829C41.8904 26.7243 41.8517 26.2559 41.7081 25.8148C41.5645 25.3737 41.3199 24.9721 40.9937 24.6417C40.6675 24.3113 40.2687 24.0612 39.8289 23.9113C38.3817 23.5339 35.5696 23.5995 33.6291 27.6857C33.4318 27.9975 33.2344 28.3421 33.0042 28.6868C32.774 29.0314 31.705 30.4591 30.5045 30.1965C30.3072 30.1965 30.0934 30.1965 29.8796 30.0816C29.4304 29.9585 28.9512 30.0082 28.537 30.221C28.1228 30.4337 27.8037 30.794 27.6431 31.2304C27.1826 33.1504 24.4857 41.8643 23.9594 41.8643C23.4332 41.8643 22.6109 27.0949 22.4465 24.8467C22.4616 24.4056 22.3403 23.9706 22.099 23.6006C21.8578 23.2307 21.5083 22.9438 21.098 22.779C20.2099 22.4672 18.2859 22.1554 17.809 23.2385C17.6201 24.0759 17.6201 24.9447 17.809 25.7821C17.809 25.9955 17.809 26.4878 17.809 27.1278C16.4934 29.3432 13.6484 34.0365 12.8754 35.333L11.7901 36.974C10.902 38.4345 8.71485 41.7986 8.25439 41.7986C6.60988 41.7986 5.75474 33.2488 6.06719 32.7729C6.37965 32.297 9.09309 29.7698 10.1291 28.3585C10.3775 27.9828 10.5376 27.5559 10.5974 27.1097C10.6572 26.6635 10.6151 26.2096 10.4744 25.782C10.3336 25.3543 10.0978 24.9639 9.78459 24.64C9.47136 24.316 9.0888 24.067 8.66551 23.9113C6.90589 23.4518 3.10708 23.6488 1.34746 31.017C-0.297042 37.7125 5.60673 46.1638 10.2771 42.1761C11.758 40.486 13.0027 38.6036 13.9773 36.5801C14.5528 35.5955 15.112 34.5945 15.7369 33.6099C16.4769 32.2806 17.2663 30.9678 18.0392 29.6385C18.4668 34.3155 19.2561 41.6345 19.6837 43.1115C19.8308 43.6488 20.1465 44.1251 20.5844 44.4706C21.0224 44.8161 21.5596 45.0126 22.1176 45.0315C23.0301 45.0534 23.9267 44.7898 24.6816 44.2778C25.4365 43.7657 26.0121 43.0308 26.3275 42.1761C27.1662 39.7966 28.9423 32.0017 29.0903 31.3781C29.7252 31.4918 30.3693 31.5467 31.0143 31.5422C31.5107 31.5694 32.0052 31.4616 32.4451 31.2304C30.9979 37.893 36.7866 46.131 41.4241 42.1761C42.8952 40.482 44.134 38.6002 45.1078 36.5801C45.6833 35.5955 46.2589 34.5945 46.8838 33.6099C47.9199 31.7555 49.0052 29.8847 50.1728 28.0139L50.436 27.5709C50.796 27.8487 51.1752 28.101 51.5707 28.3257C50.9122 31.5658 50.598 34.8661 50.6333 38.1719C50.7395 39.1283 51.0969 40.0397 51.6693 40.814C52.6389 41.4606 53.7944 41.7719 54.9583 41.7002C56.4548 41.4376 57.2935 39.7802 57.9678 38.6314C58.3296 37.9586 60.4674 33.9052 60.9279 33.0847L62.2271 30.8693C62.3537 31.5445 62.6649 32.1716 63.1264 32.6813C63.5878 33.191 64.1815 33.5635 64.8418 33.7576C65.5259 34.0493 66.2928 34.0837 67.0004 33.8544C67.708 33.6251 68.3082 33.1476 68.69 32.5104C69.3642 31.3124 71.6007 27.8498 71.979 27.2262L72.6532 38.3689C71.3376 40.3217 60.7799 48.5269 67.3579 54.2705C72.2914 58.7341 77.0934 50.529 77.0934 43.9976C77.0934 42.1268 77.0934 40.2068 76.8796 38.3361C79.1161 36.5145 82.0269 35.3822 83.951 36.2027C85.2666 36.7771 85.6284 35.7432 84.6417 35.0704ZM8.46817 25.7821C9.09308 25.4703 10.3429 26.2416 9.04375 27.8498C8.0275 29.0824 6.92864 30.2447 5.75474 31.3288C6.13298 27.538 7.36635 26.3072 8.46817 25.7821ZM39.6151 25.7821C40.24 25.4703 41.4898 26.2416 40.1907 27.8498C39.179 29.0864 38.0799 30.249 36.9017 31.3288C37.2799 27.538 38.5297 26.3072 39.6151 25.7821ZM50.2222 25.1093C47.7225 23.4683 45.9629 20.1862 48.2981 19.0375C50.6333 17.8887 52.1462 22.2703 50.2222 25.1093ZM68.3117 52.8592C63.5756 48.1987 72.571 41.7658 73.2452 40.8304C73.3439 40.8304 73.3439 45.0807 73.3439 47.8377C73.3439 50.5946 70.8114 55.3536 68.3775 52.8592H68.3117Z" fill="#4C3434"/>
<path d="M148.432 38.6804C147.238 35.5628 145.866 32.5164 144.321 29.5562C140.325 21.8269 141.673 18.3479 144.847 18.069C145.64 17.9488 146.449 18.1115 147.133 18.5285C147.829 18.9934 148.395 19.6275 148.778 20.3711C149.161 21.1147 149.347 21.9433 149.32 22.7787C149.303 23.6357 149.124 24.4818 148.794 25.2731C148.58 25.8967 147.709 26.9142 147.807 27.5049C148.843 27.6526 149.452 26.4711 149.83 25.6834C150.002 25.3515 150.145 25.0057 150.258 24.6495C150.616 23.3385 150.666 21.9627 150.406 20.629C150.33 19.5676 149.923 18.5567 149.241 17.7383C148.56 16.9199 147.639 16.3354 146.607 16.0669C140.555 14.2946 136.74 22.0731 138.828 27.866C137.398 30.2455 135.013 34.1511 134.29 35.3655L133.188 37.0065C132.316 38.4671 130.129 41.8312 129.652 41.8312C128.008 41.8312 127.169 33.2814 127.481 32.8055C127.794 32.3296 130.491 29.8024 131.527 28.3911C131.799 28.0169 131.981 27.5847 132.057 27.1285C132.134 26.6723 132.103 26.2046 131.968 25.7623C131.832 25.32 131.595 24.9151 131.276 24.5796C130.957 24.2442 130.564 23.9872 130.129 23.829C128.484 23.4023 125.195 23.5664 123.288 29.2444C121.906 31.5419 120.245 34.3152 119.67 35.2999C119.67 35.2999 119.571 35.3983 119.571 35.4475C119.266 35.9889 118.902 36.4951 118.486 36.9573C117.812 37.5809 118.173 33.8886 118.173 33.0188C118.272 28.8178 119.357 19.5295 118.173 19.0536C117.306 18.6891 116.348 18.5974 115.427 18.791C114.588 18.9551 114.079 19.2669 114.128 20.2515C114.132 21.0264 114.01 21.7969 113.766 22.5326C112.758 25.4958 111.377 28.3192 109.655 30.9347C108.405 32.7562 107.78 30.8362 107.829 29.5398C107.829 26.586 107.994 23.5664 108.093 20.6126C108.117 20.4054 108.117 20.1961 108.093 19.989C107.928 18.7418 107.566 18.3479 106.316 18.4792C105.067 18.6105 104.244 18.6433 103.981 19.8905C103.718 21.1377 103.883 22.4341 103.718 23.7305C103.521 25.4353 103.472 27.1538 103.57 28.867C103.57 29.0147 103.57 29.1788 103.57 29.3429L99.9358 35.3983C99.722 35.7593 99.5082 36.0711 99.3109 36.3829C98.3707 37.9383 97.1755 39.3251 95.7752 40.4855C95.0845 40.945 94.9858 40.6496 94.7721 39.8619C94.5872 39.0244 94.4662 38.1741 94.4103 37.3183C94.3116 35.8742 94.2623 34.4137 94.2623 32.9696C94.2623 31.5255 94.2623 29.9993 94.2623 28.506C94.3609 25.2239 95.1996 15.5746 96.0877 13.031C96.0877 13.031 106.53 13.4084 107.517 9.74892C107.616 9.28943 108.043 6.79504 105.593 9.02686C103.669 10.6679 98.0611 11.2094 96.6961 10.9961C96.9094 9.23421 97.295 7.49738 97.8473 5.81042C98.3242 4.56324 98.4722 4.16939 97.321 3.48015C95.8245 2.59399 94.3609 0.788844 93.3249 2.90578C92.6506 4.31707 92.3875 7.8289 91.4502 10.9469C91.4502 10.9469 82.1916 9.60121 83.3921 13.392C83.4907 13.753 83.7045 14.3274 84.0663 14.4751C84.4281 14.6228 84.5926 14.1633 84.905 13.8515C86.2042 12.2925 87.8158 12.7684 91.0884 13.031C90.1128 17.529 89.4208 22.0836 89.0163 26.668C89.0163 30.3111 88.6381 34.6599 89.6248 38.1553C90.3154 40.6989 91.1377 44.2763 94.5583 44.1286C97.3704 44.0138 101.893 35.0373 101.778 35.2014C102.119 34.6713 102.432 34.1235 102.715 33.5604L104.047 31.2957C104.308 31.9403 104.733 32.5059 105.28 32.9368C109.54 36.2188 112.812 28.4731 113.174 28.0137C113.174 29.1952 112.96 40.2066 116.463 40.2066C117.877 40.2066 118.7 39.7307 120.574 36.6783C120.585 36.6408 120.585 36.601 120.574 36.5635L121.314 35.3163C121.051 35.7429 121.972 34.2004 122.449 33.3634C122.548 39.4189 127.563 45.4579 131.658 41.9625C133.136 40.2733 134.375 38.3905 135.342 36.3665C135.918 35.3819 136.493 34.3809 137.118 33.3963C137.875 32.0342 138.763 30.6721 139.47 29.3101C140.999 32.4609 144.239 38.3358 144.239 38.6968C133.747 40.9286 135.72 47.0989 138.68 48.182C139.944 48.7095 141.33 48.875 142.683 48.66C144.035 48.445 145.301 47.8579 146.338 46.9648C147.375 46.0716 148.141 44.9077 148.552 43.6037C148.963 42.2998 149.001 40.9074 148.662 39.583C154.533 39.3696 155.06 42.2743 155.882 41.6999C156.704 41.1255 154.517 38.6804 148.432 38.6804ZM129.849 25.7818C130.474 25.47 131.724 26.2413 130.425 27.8496C129.415 29.0873 128.315 30.25 127.136 31.3285C127.58 27.5377 128.83 26.307 129.849 25.7818ZM141.361 47.0005C141.036 47.2414 140.654 47.3935 140.253 47.4415C139.851 47.4895 139.444 47.4319 139.071 47.2743C138.699 47.1167 138.374 46.8646 138.13 46.5431C137.885 46.2216 137.729 45.8418 137.677 45.4415C137.266 43.2097 140.588 40.7317 144.436 40.1573C144.65 40.5184 146.41 44.0466 141.46 47.0005H141.361Z" fill="#4C3434"/>
<path d="M218.373 35.0704C215.297 33.4294 211.926 35.1689 210.413 36.2027C210.315 35.333 210.265 34.4468 210.2 34.135C210.093 32.5998 210.093 31.059 210.2 29.5237C210.2 28.9986 210.2 28.4734 210.298 27.8827C210.397 26.6847 210.512 25.4375 210.66 24.2396C210.787 23.2718 210.996 22.3166 211.285 21.3842C211.499 20.6621 211.597 19.9401 211.762 19.2672C211.887 18.9657 211.892 18.628 211.776 18.323C211.66 18.0179 211.431 17.7687 211.137 17.6262C210.525 17.2129 209.78 17.0432 209.048 17.1503C208.659 17.2087 208.278 17.3134 207.914 17.4621C207.77 17.5318 207.643 17.6328 207.544 17.7578C207.444 17.8828 207.374 18.0285 207.338 18.1842C207.316 18.4611 207.25 18.7326 207.141 18.9883L206.828 20.6293C206.695 22.2989 206.128 23.9051 205.184 25.2898C203.983 27.1114 201.188 31.2632 200.974 31.4601C200.76 31.6571 200.612 32.0345 200.3 31.936C198.655 31.3617 201.122 22.0898 201.5 20.6293C201.961 18.6436 199.099 18.0857 197.899 18.9883C197.646 19.4148 197.436 19.8656 197.274 20.3339C196.463 22.8644 195.912 25.4706 195.629 28.1124C195.627 28.7996 195.682 29.4857 195.794 30.1637C193.31 35.0868 189.512 42.5043 189.331 42.4387C189.15 42.373 189.331 36.3176 189.331 34.8571V28.4242V25.1421C189.355 24.8856 189.355 24.6274 189.331 24.3709V23.9114C189.331 23.5503 189.068 23.4519 188.755 23.2878C187.881 22.9519 186.936 22.8446 186.009 22.976C185.582 23.066 185.186 23.2638 184.858 23.5503C184.674 23.8466 184.52 24.1599 184.397 24.4857C183.714 23.8132 182.897 23.2907 181.999 22.9516C181.101 22.6125 180.143 22.4643 179.184 22.5165C178.551 22.5418 177.93 22.7012 177.363 22.9841C176.796 23.2671 176.296 23.667 175.895 24.1575C174.855 25.2972 174.06 26.6377 173.56 28.096C171.471 31.9689 165.584 42.8653 165.584 41.2243C165.584 40.453 168.561 5.63022 169.284 3.48046C169.431 3.2046 169.47 2.88422 169.394 2.58117C169.319 2.27812 169.133 2.01387 168.873 1.83943C167.459 0.969678 166.209 0.493769 165.337 2.15122C164.811 3.25071 162.361 24.5186 161.9 25.4047C157.115 23.1237 154.467 24.6827 153.481 25.6016C149.271 29.8191 148.547 37.2858 153.481 37.9094C158.677 38.6315 161.325 30.1801 161.9 29.1299C161.294 32.4609 160.893 35.8258 160.7 39.2058C160.7 40.6007 160.503 45.77 163.989 45.77C166.045 45.77 170.337 37.9258 173.034 32.6417C173.128 33.6193 173.288 34.5896 173.511 35.5463C173.872 36.695 174.81 38.5658 175.912 38.5658C179.809 38.5658 181.947 32.1165 184.595 27.4068C184.595 27.9155 184.693 41.2571 184.907 42.652C184.978 43.1897 185.182 43.7014 185.5 44.1414C185.818 44.5814 186.24 44.9359 186.728 45.1732C187.217 45.4106 187.757 45.5233 188.3 45.5015C188.843 45.4796 189.373 45.3238 189.841 45.0479C190.679 44.6048 194.149 37.4827 196.583 32.3299C196.792 32.7282 197.081 33.0794 197.432 33.3617C197.783 33.644 198.188 33.8514 198.622 33.9709C199.306 34.2627 200.073 34.2971 200.781 34.0678C201.488 33.8384 202.089 33.3609 202.47 32.7237C203.145 31.5258 205.381 28.0632 205.759 27.4396L206.434 38.5822C205.085 40.5023 194.577 48.609 201.122 54.4182C206.055 58.8819 210.857 50.6767 210.857 44.1454C210.857 42.2746 210.857 40.3546 210.644 38.4838C212.88 36.6622 215.791 35.5299 217.715 36.3504C218.998 36.7771 219.359 35.7432 218.373 35.0704ZM153.53 36.1535C151.704 35.2673 156.079 26.5042 160.749 27.0293C159.088 30.6068 155.503 37.0397 153.53 36.1535ZM177.77 35.8909C177.605 36.1043 177.03 36.9412 176.619 36.7279C175.681 36.2684 176.471 32.9863 176.619 32.4284C176.864 31.0695 177.428 29.7876 178.263 28.6868C178.802 27.6535 179.614 26.7873 180.611 26.1826C181.609 25.5779 182.753 25.2577 183.92 25.257C182.703 26.9801 178.806 34.6602 177.77 35.8909ZM202.092 52.8593C197.372 48.1987 206.351 41.7658 207.026 40.8305C207.124 40.8305 207.124 45.0807 207.124 47.8377C207.124 50.5946 204.542 55.3536 202.092 52.8593Z" fill="#4C3434"/>
</svg>
