<svg width="12" height="12" viewBox="0 0 12 12" fill="none" xmlns="http://www.w3.org/2000/svg">
<path fill-rule="evenodd" clip-rule="evenodd" d="M0.476651 1.62729C0.781845 1.32209 1.19578 1.15063 1.62739 1.15063H5.42463C5.72422 1.15063 5.96709 1.3935 5.96709 1.6931C5.96709 1.99269 5.72422 2.23556 5.42463 2.23556H1.62739C1.48352 2.23556 1.34554 2.29271 1.24381 2.39444C1.14208 2.49618 1.08493 2.63415 1.08493 2.77802V10.3725C1.08493 10.5164 1.14208 10.6543 1.24381 10.7561C1.34554 10.8578 1.48352 10.915 1.62739 10.915H9.22186C9.36573 10.915 9.50371 10.8578 9.60544 10.7561C9.70717 10.6543 9.76433 10.5164 9.76433 10.3725V6.57526C9.76433 6.27567 10.0072 6.0328 10.3068 6.0328C10.6064 6.0328 10.8493 6.27567 10.8493 6.57526V10.3725C10.8493 10.8041 10.6778 11.218 10.3726 11.5232C10.0674 11.8284 9.65347 11.9999 9.22186 11.9999H1.62739C1.19578 11.9999 0.781845 11.8284 0.476651 11.5232C0.171456 11.218 0 10.8041 0 10.3725V2.77802C0 2.34641 0.171456 1.93248 0.476651 1.62729Z" fill="#5E4242"/>
<path fill-rule="evenodd" clip-rule="evenodd" d="M10.3069 1.08493C10.1456 1.08493 9.99087 1.14901 9.87679 1.26308L4.82964 6.31024L4.5429 7.45721L5.68987 7.17046L10.737 2.12331C10.8511 2.00924 10.9152 1.85452 10.9152 1.6932C10.9152 1.53188 10.8511 1.37716 10.737 1.26308C10.6229 1.14901 10.4682 1.08493 10.3069 1.08493ZM9.10963 0.495927C9.42717 0.17839 9.85784 0 10.3069 0C10.756 0 11.1866 0.17839 11.5042 0.495927C11.8217 0.813463 12.0001 1.24413 12.0001 1.6932C12.0001 2.14226 11.8217 2.57294 11.5042 2.89047L6.35079 8.04387C6.28126 8.11339 6.19416 8.16271 6.09877 8.18655L3.92892 8.72902C3.74407 8.77523 3.54851 8.72107 3.41378 8.58633C3.27904 8.45159 3.22488 8.25604 3.27109 8.07119L3.81355 5.90133C3.8374 5.80595 3.88672 5.71884 3.95624 5.64932L9.10963 0.495927Z" fill="#5E4242"/>
</svg>
