<svg width="28" height="28" viewBox="0 0 28 28" fill="none" xmlns="http://www.w3.org/2000/svg">
<path d="M1.25 13.2917C1.24513 15.1615 1.68199 17.006 2.525 18.675C3.52455 20.675 5.06119 22.3572 6.96278 23.5332C8.86437 24.7092 11.0558 25.3325 13.2917 25.3334C15.1615 25.3382 17.006 24.9014 18.675 24.0584L26.75 26.75L24.0583 18.675C24.9013 17.006 25.3382 15.1615 25.3333 13.2917C25.3325 11.0559 24.7091 8.86441 23.5331 6.96282C22.3572 5.06123 20.675 3.52459 18.675 2.52504C17.006 1.68203 15.1615 1.24517 13.2917 1.25004H12.5833C9.63051 1.41295 6.84152 2.65929 4.75038 4.75042C2.65925 6.84156 1.41291 9.63055 1.25 12.5834V13.2917Z" stroke="black" stroke-width="2" stroke-linecap="round" stroke-linejoin="round"/>
</svg>
