<?xml version="1.0" standalone="no"?>
<!DOCTYPE svg PUBLIC "-//W3C//DTD SVG 1.1//EN" "http://www.w3.org/Graphics/SVG/1.1/DTD/svg11.dtd" >
<svg xmlns="http://www.w3.org/2000/svg">
<metadata></metadata>
<defs>
<font id="honeymoonregular" horiz-adv-x="2048" >
<font-face units-per-em="2048" ascent="1536" descent="-512" />
<missing-glyph horiz-adv-x="245" />
<glyph horiz-adv-x="0" />
<glyph horiz-adv-x="682" />
<glyph unicode=" "  horiz-adv-x="245" />
<glyph unicode="&#x09;" horiz-adv-x="245" />
<glyph unicode="&#xa0;" horiz-adv-x="245" />
<glyph unicode="!" horiz-adv-x="339" d="M98 199q0 -20 25 -44t47 -26q25 -3 53 29t31 59q4 4 4 12q-4 24 -30 43t-50 19q-14 2 -47 -36.5t-33 -55.5zM100 515.5q0 -17.5 6 -36t19 -24.5q16 -11 49 -11q61 -4 66 37q3 8 3 18.5t-1.5 23.5t-1.5 20q6 143 6 145q1 57 2 172t2 172q4 179 2 268l-6 93 q-3 17 -46.5 34.5t-58.5 12.5l-6 -4q-9 -8 -12 -67t-4 -134t-4 -100q-10 -119 -11 -152v-223v-166q0 -7 -2 -34t-2 -44.5z" />
<glyph unicode="&#x22;" horiz-adv-x="249" d="M39 920q79 -54 62 204q-1 6 -1 9q0 17 -4 75q0 14 -23 29t-30 8zM146 1077q-2 -140 20 -157q50 -35 61 60q4 40 -2 153q0 12 -1 36t-1 39q-1 14 -24 28.5t-31 8.5l-2 -2q-18 -26 -20 -166z" />
<glyph unicode="#" horiz-adv-x="626" d="M20 545q-2 7 3.5 30.5t11.5 24.5q4 0 12 2t12 2q62 0 109 -2v14v113q-34 0 -62 4q-7 1 -27.5 1.5t-37 2.5t-18.5 6q0 1 -1.5 2.5t-1.5 2.5q-2 7 3.5 30.5t11.5 24.5q16 4 24 4q62 0 109 -2v18q0 29 4 85.5t12 60.5l2 2q10 2 29.5 -0.5t26.5 -9.5q8 -6 2 -158h2 q32 6 135 2v18q0 35 8 107q0 18 2 26q3 15 21 15q20 0 30 -2q17 -2 17 -43q0 -68 -2 -123q15 -1 40 -1t52 0.5t31 0.5q5 1 12 -0.5t10 -1.5q0 -2 2 -2q5 -12 2 -30t-10 -24q-9 -12 -25 -12q-3 0 -47.5 -2t-64.5 -2v-6q0 -70 -2 -123q15 -1 40 -1t52 0.5t31 0.5q6 0 22 -4 l2 -2q5 -10 2 -27.5t-10 -23.5q-10 -13 -25 -13q-3 0 -48.5 -2t-67.5 -2q-4 -85 2 -157q0 -10 -0.5 -14t-4.5 -9t-12 -6q-33 -5 -43 10q-12 16 -12 27q0 4 -2 63t-2 86h-21h-118q0 -132 2 -157q0 -9 -4 -25l-2 -2q-11 -6 -29.5 -3t-24.5 11q-12 16 -12 27q0 4 -2 63t-2 86 q-34 0 -62 4q-6 1 -27 2t-37.5 3t-18.5 6q0 1 -1.5 2t-1.5 2zM244 600h2q2 0 29 1t52 1.5t54 -0.5v14v113h-135v-6q2 -16 -2 -123z" />
<glyph unicode="$" horiz-adv-x="401" d="M21.5 450q-0.5 22 1 52t9 51.5t21.5 21.5q17 0 35.5 -10t17.5 -22q-16 -113 4 -183.5t60 -89.5q0 16 -1 49t-1 50v325q-92 232 -111 291q-29 95 -20 135q13 55 50.5 86t86.5 39q3 50 6 55q0 1 1 2.5t1 2.5q7 5 27.5 -11t21.5 -30v-21q33 -4 50 -18q32 -22 54 -56t25 -67 q6 -75 0 -82q-10 -9 -35.5 -8.5t-29.5 12.5q-2 6 -5 31.5t-11.5 55.5t-26.5 58q-9 12 -19 17v-2q2 -50 -2 -363q20 -50 58 -139.5t56.5 -136.5t21.5 -62q41 -210 -39 -266q-21 -14 -35 -18t-41 -4q-4 0 -11 1t-10 1q-2 -14 -2 -43l-2 -7q-11 -15 -26 -8t-21 29l-6 37 q-20 5 -37.5 14t-31 18t-24.5 22t-18.5 23.5t-14 26t-10 25t-6.5 25.5t-4 22t-3 20t-2 15q-1 12 -1.5 34zM137 1118q-2 -27 33 -131q0 8 1 24.5t1 24.5q2 29 2 146q-34 -21 -37 -64zM229 408q-2 -46 2 -136q3 3 11 7q59 39 -13 249v-120z" />
<glyph unicode="%" horiz-adv-x="651" d="M20 1034q0 48 15 92.5t28.5 65t24.5 31.5q15 14 31.5 22.5t35.5 8.5t33 -15q20 -22 28.5 -79t3 -115.5t-28.5 -105t-60 -50.5q-14 -1 -29.5 3t-35.5 16t-33 45t-13 81zM88 1085q-8 -93 12 -139q14 -28 29 -28q34 0 52.5 58.5t17 126t-16.5 99.5q-9 18 -22 16t-24.5 -13 t-18.5 -25q-22 -41 -29 -95zM123 170q-5 -18 4 -27q6 -6 20 -6q37 -4 54 10q3 3 14 31q7 16 14 41q6 23 130 462t139 501q2 8 9 33t9 42q3 12 -15.5 22.5t-35.5 16.5q-5 2 -10 0q-7 -3 -9 -10q-2 -4 -8 -22l-18 -58q-4 -13 -12.5 -39.5t-12.5 -40.5q-5 -16 -14 -47t-14 -47 l-31 -106q-3 -11 -15.5 -52.5t-19.5 -62.5q-5 -22 -17 -62t-16 -57q-6 -19 -17.5 -58t-17.5 -59l-30 -112q-6 -26 -29 -101q-5 -25 -22 -86l-19 -67q-2 -6 -5 -19t-5 -20zM430 303q0 48 15 92.5t28.5 65t24.5 31.5q15 14 31.5 23t35.5 8.5t33 -15.5q28 -31 33.5 -113 t-19 -156t-73.5 -79q-8 1 -21 0t-28.5 8.5t-28.5 23t-22 43t-9 68.5zM498 354q-8 -91 12 -139q14 -29 29 -29q34 0 52.5 59t17 126.5t-16.5 99.5q-9 19 -22.5 16.5t-25 -13t-18.5 -23.5q-21 -38 -28 -97z" />
<glyph unicode="&#x26;" horiz-adv-x="741" d="M31 614q7 122 64 204t169 89q-28 52 -43 103q-3 9 -8 27.5t-8 27.5q-17 59 6 127q21 68 72 96q28 17 70 20.5t73 -5.5q13 -4 53 -29q47 -31 76 -87.5t10 -105.5q-6 -17 -22.5 -35.5t-32.5 -17.5q-8 1 -12.5 6.5t-5.5 14.5t-1.5 16.5t0.5 17.5t1 13q-3 53 -46 80 q-52 33 -94 10q-12 -6 -20 -17q-56 -56 28 -198l43 -74q7 -13 3 -31q-8 -27 -39.5 -34t-71 -7t-55.5 -10q-81 -51 -72 -221q7 -161 80 -279q15 -23 24.5 -35t28 -23.5t39.5 -10.5q49 1 86 26.5t54.5 64t23.5 84.5t-8 89q-17 65 -48 100q-36 42 -67 -10q-6 -9 -8.5 -24.5 t0.5 -26.5q1 -2 11 -13t9 -22q-1 -17 -22 -27t-39 -8q-23 3 -31 21.5t-10 48.5q-4 70 28 113q12 16 31 23t37.5 6t38.5 -1q59 -9 123 15q66 27 82 79q7 23 -1 39t-32 13q-4 -1 -14 -4.5t-16 -5t-15 0.5q-23 10 -12 54q9 35 45 44t65 -10q57 -35 60 -110q1 -55 -23 -86.5 t-78 -54.5q-7 -4 -39.5 -16t-33.5 -9q3 -12 14 -37t14 -39q8 -33 8 -76q0 -105 -12 -145q-32 -104 -96 -149q-59 -46 -160 -46q-69 0 -131 52q-79 68 -113.5 182.5t-29.5 232.5z" />
<glyph unicode="'" horiz-adv-x="329" d="M104 1309.5q4 -24.5 21 -37.5l31 -27q18 -18 18 -33l-6 -22q0 -3 -2.5 -14t-5.5 -11q7 -2 18 9q9 6 17 14q4 6 10 18.5t10 18.5q13 26 11.5 67.5t-21.5 61.5l-2 2q-23 22 -48 23t-44 -25q-11 -20 -7 -44.5z" />
<glyph unicode="(" horiz-adv-x="319" d="M20.5 654.5q-6.5 119.5 16 253.5t76.5 243q16 35 55 84q27 30 51 49q31 31 41 29q16 -2 29.5 -17t7.5 -28l-2 -4q-5 -9 -20 -20.5t-19 -16.5q-77 -82 -119 -273q-49 -202 -28 -411q13 -113 45 -205q18 -47 43 -92l24 -43q2 -4 3 -8t1 -6.5t-2.5 -6t-3.5 -4.5l-5.5 -5.5 l-6.5 -6.5q-14 -16 -45 6q-65 43 -94 141q-16 56 -28.5 139t-19 202.5z" />
<glyph unicode=")" horiz-adv-x="317" d="M23 1235q0 -2 2 -4q5 -8 20 -20t18 -15q31 -33 55.5 -84.5t36.5 -91t27 -98.5q48 -206 27 -410q-10 -111 -45 -205q-18 -49 -41 -94l-27 -43q-2 -5 -2.5 -9t1 -8t3.5 -6l6.5 -6.5t6.5 -7.5q13 -13 47 6q69 46 92 144q16 55 28.5 137.5t19 201.5t-16 253.5t-76.5 244.5 q-23 47 -55 82q-3 4 -50 51l-18 15q-17 14 -25 14q-14 -2 -27 -18t-7 -29z" />
<glyph unicode="*" horiz-adv-x="393" d="M0 883q0 18 12 30q8 5 19.5 18.5t17.5 18.5q2 2 15 13.5t33.5 30t37.5 34.5q-8 6 -16 14q-6 5 -31 35q-4 4 -23 21.5t-31 31.5t-9 19v4q5 7 30 20.5t29 10.5q20 -12 25 -17q10 -8 45 -39q4 16 4 29q1 9 2 39t3 52.5t7 25.5q2 2 4 2q8 3 37.5 -4.5t30.5 -14.5q4 -24 4 -34 q1 -20 -0.5 -56.5t-1.5 -48.5l18 12q8 5 29.5 23.5t39 31.5t23.5 11h4q8 -5 23.5 -27t11.5 -26q-20 -25 -22 -27q-44 -38 -107 -90q12 -12 23.5 -23t19 -18t8.5 -8q7 -7 16.5 -14.5t21.5 -15.5t18 -13q4 -4 14 -19v-4q-4 -12 -21.5 -23t-29.5 -11q-21 0 -31 10 q-33 22 -37 26q-6 3 -26 23q0 -10 -1 -29t-1 -28q0 -15 2 -43t2 -41q1 -6 -4 -31q0 -2 -2 -2q-14 -7 -35 -4t-29 12q-14 18 -14 35q0 9 -3 27.5t-3 27.5q0 47 -2 70q-24 -17 -27 -23q-11 -9 -30 -28.5t-27 -26.5q-3 -3 -25 -14q0 -4 -4 0q-13 3 -26 18.5t-11 26.5z" />
<glyph unicode="+" horiz-adv-x="493" d="M20 641q-2 10 4.5 38.5t12.5 29.5q24 4 31 4q17 2 133 -2v22q0 33 6 60q1 7 1 38.5t2 53t7 24.5l4 2q10 3 38.5 -4t29.5 -14q4 -24 4 -35q2 -19 -2 -149l76 -4q11 0 23 1t26.5 2.5t23.5 2.5q5 0 14.5 -2.5t12.5 -3.5q2 -1 2 -3q6 -14 3 -34.5t-11 -28.5q-17 -14 -29 -14 q-8 0 -24.5 -3.5t-24.5 -3.5h-94q-2 -53 -2 -104q-1 -16 4 -84q0 -5 -2 -15.5t-2 -15.5q-1 0 -2 -1t-2 -1q-14 -7 -35 -3.5t-29 14.5q-14 18 -14 32q0 9 -3 28t-3 28v125h-23q-19 0 -51 4q-8 1 -34 2t-45.5 3t-22.5 7q0 4 -3 4z" />
<glyph unicode="," horiz-adv-x="157" d="M20 49q2 0 6 4.5t8 10.5l5 6l12 18q7 16 -4 37q-14 28 -20 37q-10 18 -5 42.5t23 37.5q27 18 50 8.5t36 -39.5v-2q11 -28 -1.5 -64.5t-35.5 -58.5q-3 -3 -33 -27q-12 -8 -20 -10h-21z" />
<glyph unicode="-" horiz-adv-x="421" d="M20 649q0 33 13 35q20 4 26 4q55 2 113.5 1t127 -3t71.5 -2q12 2 22 -8q8 -9 7 -24t-11 -25q-15 -11 -24 -11h-72q-119 0 -178 2q-6 1 -31.5 2t-38.5 3q-22 3 -25 26z" />
<glyph unicode="." horiz-adv-x="176" d="M18 219q0 -17 21.5 -37.5t40.5 -23.5q20 -1 44.5 26.5t27.5 48.5q2 4 2 13q-3 22 -24 38.5t-44 16.5q-12 0 -40 -33.5t-28 -48.5z" />
<glyph unicode="/" horiz-adv-x="534" d="M53 172q-5 -20 4 -29q1 -1 23 -8q38 -4 57 12q7 6 17 35q11 27 16 45q6 25 142 506.5t151 548.5q18 64 20 82q4 20 -55 45h-10q-7 -4 -10 -12q-6 -11 -9 -25q-8 -23 -20 -63q-16 -47 -27 -86q-18 -53 -33 -105q-10 -39 -34 -117q-33 -117 -35 -127q-21 -64 -39 -129 q-30 -107 -35 -129q-34 -117 -35 -120l-30 -113q-14 -42 -27 -94q-3 -13 -10.5 -37t-10.5 -37q-2 -16 -10 -43z" />
<glyph unicode="0" horiz-adv-x="458" d="M21 752q-3 -92 5.5 -187t19 -152.5t22.5 -101.5q11 -50 32 -82.5t62 -58.5q53 -39 104 -8q64 44 109.5 209t58.5 349.5t-8 350t-76 211.5q0 1 -10 6l-53 19q-4 1 -10 3l-9 3t-6.5 0.5t-7.5 -2.5q-43 -32 -86 -78q-34 -36 -55 -84q-44 -89 -66.5 -197t-25.5 -200zM158 781 q4 133 43.5 257t111.5 187q11 8 17 8q8 0 18 -21q9 -15 27 -67q19 -62 19.5 -211.5t-15 -303.5t-51 -272t-80.5 -118q-22 0 -46.5 80t-36 204t-7.5 257z" />
<glyph unicode="1" horiz-adv-x="190" d="M20 379q0 -21 4.5 -63t4.5 -62q0 -34 22 -76q12 -22 46.5 -28.5t54.5 8.5l6 6q0 4 3 28.5t3 36.5q-1 21 -3 60t-3 71t0 60q0 9 6.5 359t5.5 415q-1 11 -4 37.5t-4 42.5q-1 14 -46.5 30t-60.5 11l-6 -4q-9 -7 -12 -58.5t-3.5 -118.5t-2.5 -87q-8 -86 -8 -134 q-3 -67 -3 -534z" />
<glyph unicode="2" horiz-adv-x="522" d="M20 227q-4 -51 19 -65q29 -20 121 -4q83 9 114 14q78 10 168 31q9 3 54 28q3 2 5 7t1 8q0 3 -5 6.5t-10 3.5q-136 -8 -204 -14q-23 -1 -69.5 -9t-59.5 -10q8 23 18.5 58l13.5 45q44 129 56 155q30 76 96.5 237.5t73.5 170.5q11 18 26 64.5t26 108t11.5 117.5t-22.5 95 t-70 39h-53q-60 -7 -113.5 -34.5t-81.5 -74.5q-2 -3 -7 -13.5t-9 -18.5t-8 -19.5t-3.5 -17.5t3.5 -13q8 -10 31 -10t38 6q11 4 17 13t11 23t9 20q7 17 43 57q21 22 47.5 30.5t54.5 -4.5q15 -9 18 -33.5t-5.5 -59t-21.5 -72.5t-32 -80.5t-34.5 -75.5t-31 -65t-19.5 -42 q-49 -106 -84 -192q-7 -14 -43.5 -115t-45.5 -129q-5 -19 -15.5 -52t-17.5 -61t-10 -53z" />
<glyph unicode="3" horiz-adv-x="544" d="M29 276q16 -49 50 -78.5t75 -40t96 -10.5q117 0 196 133q74 123 79 289q4 172 -73 266q-59 72 -155 72q101 189 125 243q40 92 27 114q-21 34 -89 20q-25 -6 -231 -6q-41 0 -46 -14q-2 -4 -1 -11q3 -18 31.5 -28.5t52.5 -12.5q20 -2 56.5 -1t72.5 2.5t37 0.5 q-14 -28 -82.5 -148t-97.5 -169q-6 -12 -2 -31q8 -27 39 -34t70.5 -7t55.5 -10q65 -42 72 -169t-40 -250t-120 -158q-30 -14 -63.5 4t-52.5 49q-46 71 43 260q18 31 12 41q-4 6 -9.5 6.5t-9.5 -2t-10.5 -7t-9.5 -5.5l-6 -9q-56 -41 -85 -136.5t-7 -162.5z" />
<glyph unicode="4" horiz-adv-x="630" d="M23 877q4 -26 35.5 -41.5t75 -19t85 -3.5t73 2t32.5 2q-2 -12 -8.5 -124.5t-11 -264.5t-1.5 -238q0 -30 4 -36q3 -2 37 -2q18 -2 51 -2q23 0 27 6q6 6 6 26q0 16 -1 37t-1 37q2 172 2 516l6 47q13 1 55 1.5t64 2.5q40 9 49 23q26 33 -27 33q-10 0 -27 -1q-10 -1 -13 -1 h-93q-2 31 -2.5 34.5t2 35t2.5 32.5l7 145q0 1 1.5 22.5t3.5 51.5t3 47q0 14 -10 21q-10 6 -62 32q-34 17 -50.5 14t-35.5 -28q-2 -3 -46.5 -60t-84.5 -108t-83 -109t-58 -81q-14 -21 -6 -49zM137 883q140 200 205 291v-44q-8 -61 -10 -94q-2 -23 -5 -69.5t-5 -69.5 q-2 -20 -29 -20z" />
<glyph unicode="5" horiz-adv-x="563" d="M20 315q0 -72 37 -104q38 -30 86 -45t99.5 -6.5t87.5 43.5q30 30 77.5 156t70 267.5t-31.5 229.5q-10 15 -26 28.5t-44.5 26.5t-73 12.5t-97.5 -18.5q41 208 53 248q1 9 9 18t16 11q23 5 88.5 9t87.5 3q18 -5 42.5 -3t30.5 21q1 2 3 8.5t3 10t3 9.5t1.5 10.5l-1 9 t-3.5 8.5t-8 6h-2q-8 4 -19 4.5t-25.5 -1t-20.5 -1.5q-30 -2 -64 -2t-75.5 1t-65.5 1q-108 0 -119 -39q-14 -55 -44 -192.5t-29 -153.5q3 -27 42.5 -52.5t63.5 -11.5q8 5 58 19t63 14q74 0 76 -133q2 -130 -56 -288q-55 -146 -114 -177q-12 -6 -23 -6q-32 0 -54.5 14.5 t-25.5 44.5q-5 56 29 144q20 52 8 71q-27 40 -55 -24q-1 -2 -8 -18t-8.5 -19t-7.5 -17.5t-7.5 -19.5t-6.5 -18t-6.5 -19.5t-5 -18.5t-4.5 -20.5t-2.5 -19.5t-1.5 -21z" />
<glyph unicode="6" horiz-adv-x="485" d="M23 464q7 -95 23 -163t38 -96q25 -33 68.5 -42.5t91.5 9.5q58 29 104 101.5t70.5 159t37 174.5t10 156.5t-16.5 96.5q-16 34 -57 46t-90.5 -7.5t-82.5 -69.5q-54 -86 -72 -122q-3 68 9 149t32.5 150t41 126t36.5 94l15 38q3 16 -11.5 25.5t-33.5 13.5q-4 3 -10 0.5 t-9 -2.5t-8 -5.5t-7 -6.5t-6 -7.5t-5.5 -8.5t-4.5 -8.5t-4 -7.5q-23 -41 -39 -77q-44 -102 -73 -228q-31 -132 -42.5 -262.5t-4.5 -225.5zM142 352l1 17q0 38 18.5 129t33.5 141q13 44 51.5 107.5t66.5 91.5q38 38 54 6q26 -46 11 -150t-47 -210.5t-74 -187.5t-69 -81 q-11 0 -19 6.5t-13 19.5t-8 25.5t-4 31t-1.5 28.5t-0.5 26z" />
<glyph unicode="7" horiz-adv-x="473" d="M21 1231q-1 -14 2 -19q6 -11 49.5 -14t90 -1t94 5.5t50.5 3.5q13 0 18.5 -7t-1.5 -21q-83 -144 -103 -211q-2 -6 -11.5 -37t-19.5 -64.5t-24.5 -87t-25.5 -103.5t-22.5 -115.5t-16 -122t-6.5 -123.5t7 -119q4 -23 20.5 -35t35.5 -10q40 6 43 59q-4 75 2 156.5t18.5 152.5 t31 144.5t37 130.5t40 114t36 91t28 64.5t14.5 31.5q2 5 24 40t21 54q0 3 0.5 14t0 17t-1.5 15.5t-5 16t-11 9.5q-7 5 -17.5 7t-18.5 2t-21.5 -0.5t-18.5 -0.5q-42 -1 -124.5 -2t-124.5 -2q-3 0 -23 1t-33.5 0t-21.5 -5q-5 -2 -8 -9q-3 -6 -4 -20z" />
<glyph unicode="8" horiz-adv-x="509" d="M24 408.5q16 -125.5 78 -199.5q37 -44 100 -50t109 25q55 34 85.5 90t58.5 142q27 95 18 190q-13 184 -86 271l7 7q8 7 20 21t25.5 33.5t25.5 46.5t19 57t6 68.5t-13 77.5q-28 84 -103.5 110t-150.5 -22q-55 -34 -83.5 -86.5t-29.5 -103.5t9.5 -99.5t24.5 -80t24 -40.5 q-85 -75 -122.5 -203.5t-21.5 -254zM149.5 500.5q1.5 60.5 30 134t84.5 139.5q24 24 53.5 17.5t42.5 -33.5q38 -82 33.5 -184.5t-31 -191t-59.5 -132.5q-12 -18 -31.5 -25t-38.5 8q-21 21 -40.5 58t-32 93t-11 116.5zM227.5 1056q6.5 83 51.5 158q14 25 46 24t48 -34 q30 -60 24 -122t-25 -107t-42 -66q-13 -16 -40 -8.5t-42 33.5q-27 39 -20.5 122z" />
<glyph unicode="9" horiz-adv-x="440" d="M21 1048q-4 -60 11.5 -101t33.5 -67.5t34 -35.5q67 -43 125 12l31 27q-2 -9 -3.5 -36.5t-2.5 -61.5t-2 -44q-2 -18 -18 -270t-15 -272q3 -40 39 -43q14 0 20 -2q27 -5 42.5 8.5t15.5 40.5q3 85 24 385.5t31 400.5q4 32 11.5 95.5t11.5 95.5q4 42 8 67q0 2 1 11.5t0 14.5 t-5 9q-13 5 -20 5t-23 -4t-21 -5q-16 -4 -26 6q-60 57 -131 23q-93 -48 -138 -138q-30 -61 -34 -121zM134 1013.5q6 53.5 21 107t43.5 93t59.5 39.5q7 1 12 -1t8.5 -8.5t5 -10t3.5 -13t2 -10.5q6 -26 -12 -116t-31 -115q-4 -8 -10.5 -18.5t-18.5 -25t-24.5 -22.5t-26.5 -4.5 t-25 23.5q-13 28 -7 81.5z" />
<glyph unicode=":" horiz-adv-x="176" d="M20 199q0 -17 21.5 -39t40.5 -23q20 -1 44.5 27t27.5 49q2 4 2 12q-3 21 -25 38.5t-43 17.5q-12 0 -40 -33.5t-28 -48.5zM20 846q0 -17 21.5 -38t40.5 -24q20 -1 44.5 27t27.5 49q2 4 2 12q-3 22 -25 39t-43 17q-12 0 -40 -33.5t-28 -48.5z" />
<glyph unicode=";" horiz-adv-x="176" d="M20 846q0 -18 21.5 -39t40.5 -23q20 -1 44.5 27t27.5 49q2 4 2 12q-3 21 -24.5 38.5t-43.5 17.5q-12 0 -40 -33.5t-28 -48.5zM31 59q5 -5 20 0q11 4 19 9q7 5 19 15t13 11q25 23 37.5 60t1.5 65l-2 2q-13 29 -36 39t-50 -8q-17 -13 -22 -37.5t6 -44.5q15 -30 18 -35 q12 -25 4 -37l-12 -18q0 -1 -3.5 -6.5t-7.5 -10.5t-5 -4z" />
<glyph unicode="&#x3c;" />
<glyph unicode="=" horiz-adv-x="421" d="M20 557q0 33 13 35q20 4 26 4q48 2 176.5 -0.5t135.5 -1.5q10 0 22 -8q8 -9 7 -24.5t-11 -24.5q-13 -13 -24 -13h-72q-29 0 -88.5 1t-89.5 1q-11 1 -35 2t-35 2q-22 3 -25 27zM20 766q0 33 13 35q20 4 26 4q55 2 113.5 1t127 -3t71.5 -2q10 2 22 -6q8 -10 7 -25.5 t-11 -24.5q-12 -12 -24 -12h-72q-119 0 -178 2q-8 1 -32.5 1.5t-37.5 2.5q-22 3 -25 27z" />
<glyph unicode="&#x3e;" />
<glyph unicode="?" horiz-adv-x="481" d="M55 1081q8 -9 31.5 -9t36.5 5q12 4 18 12.5t10.5 23.5t8.5 22q15 25 45 55q21 24 46.5 33t53.5 -4q12 -7 17.5 -21t4.5 -33t-5 -38t-12 -41.5t-14 -38.5t-14 -34.5t-10 -23.5q-12 -28 -51.5 -108t-56.5 -135.5t-17 -118.5q0 -9 5 -76q0 -4 0.5 -19.5t1.5 -25.5t3.5 -23 t7.5 -22.5t13 -14.5l17 -6q15 -5 33.5 -3t27.5 9q11 9 12.5 26t-3.5 43.5t-5 29.5q-8 85 15 167t85 177q24 36 43 98t26 126.5t-18 111.5t-85 47q-5 0 -16 0.5t-20.5 0.5t-17.5 -1q-61 -7 -113.5 -34t-78.5 -75q-40 -65 -25 -82zM145 215q0 -17 21 -38.5t41 -22.5t43.5 26 t28.5 49q3 7 0 13q-1 21 -23 38t-43 17q-13 0 -40.5 -33.5t-27.5 -48.5z" />
<glyph unicode="@" horiz-adv-x="577" d="M10 571q0 78 20 149.5t52 123t52.5 78t41.5 47.5q63 63 159.5 74.5t149.5 -39.5q28 -28 43 -66q23 -60 33 -129q9 -77 6 -156q-4 -52 -8 -80q-5 -31 -8 -41q-8 -33 -35.5 -63.5t-69.5 -30.5q-36 0 -57 21q-33 31 -37 110q0 -1 -1 -3q-4 -14 -8.5 -26t-16 -36t-23.5 -38.5 t-31 -23.5t-39 -2q-44 16 -54 71.5t7 119t45 120.5t54 80q32 28 57 19q18 -5 31 -31q1 -3 4 -9t4 -9q0 -12 6 -15q4 -2 14 -2h17q18 0 18 -18q0 -6 -5.5 -48t-11 -85t-4 -85.5t12.5 -55.5q2 -3 6 -6t10.5 -5t13 -0.5t14.5 9.5t15 24q31 77 23 218t-43 194q-32 48 -77.5 59 t-88 -8t-77.5 -48.5t-54 -60.5q-64 -108 -78 -209q-6 -60 -4.5 -107t17.5 -82.5t33 -60.5t42.5 -42t46 -27t44 -15t36.5 -6.5t23 -1.5q15 0 37 11q3 1 9 4t9 4q17 10 27 10h26q33 0 23 -16q-7 -10 -33 -31q-43 -28 -82 -33h-6q-20 -2 -47 0.5t-66.5 10.5t-75.5 29.5 t-69 53.5t-52.5 86.5t-19.5 124.5zM238 528q3 -29 15.5 -36t26 3t23.5 29q30 67 47 121q8 70 8 115q0 19 -8 43t-18 24q-46 0 -73.5 -110t-20.5 -189z" />
<glyph unicode="A" horiz-adv-x="579" d="M51 193q-1 -13 4.5 -19.5t22 -12.5t18.5 -7q12 -7 26 -7q6 -1 12 1q20 4 28 26q2 6 36.5 350.5t41.5 364.5q6 18 110 24q4 0 6.5 -12.5t4 -39t1.5 -27.5q2 -18 17 -214t24 -249q3 -19 8.5 -58t10.5 -69t12 -56q5 -29 39 -32h7h7.5h8t8.5 1t7 1.5t6.5 2.5l5 4t4 5.5 t1.5 9.5q0 16 -10 124q-12 118 -25 248t-14 144q-3 35 -41.5 318t-48.5 340q-4 24 -28 38q-22 13 -47 13h-4q-27 -1 -49.5 -13t-24.5 -32q-3 -21 -91.5 -580t-93.5 -587zM252 969q46 305 49 305q4 0 17.5 -86.5t15.5 -112.5q4 -28 8 -84z" />
<glyph unicode="B" horiz-adv-x="493" d="M51 698q0 -32 14.5 -268t18.5 -248q7 -17 16 -24q7 -2 22 -2.5t19 -1.5q86 0 109 12q75 36 122 106q46 70 59 146q11 64 11 130v25q-2 79 -17 138t-32 90q-67 110 -137 143q58 40 92 93t40 105q2 18 2 35q0 33 -8 67q-12 50 -40 89q-56 79 -147 97q-20 4 -31 4 q-16 2 -49 2h-27q-25 0 -29 -4t-4 -19q-4 -50 -4 -78v-84v-553zM162 905q50 -9 90.5 -44.5t64.5 -86.5q42 -86 42 -207q0 -32 -3 -67q-3 -34 -25.5 -88t-64 -107t-86.5 -65q0 2 -3.5 100t-7 214.5t-5.5 223.5q-2 76 -2 108v19zM170 1380h9q33 0 61 -18q32 -21 47 -59 q21 -55 21 -106q0 -19 -3 -38q-12 -88 -55 -125q-11 -10 -30 -22.5t-33 -19.5t-15 -7q0 72 -1 198.5t-1 196.5z" />
<glyph unicode="C" horiz-adv-x="524" d="M51 766q0 231 28 366q43 209 152 285q22 14 61 19q24 3 46 3q13 0 24 -1q59 -9 101 -113q1 -3 4 -11t4 -12t3 -11q1 -4 0.5 -7t-2.5 -13q-2 -5 -7 -8.5t-12 -5.5q-12 -4 -30 -1.5t-30 10.5q-15 8 -25.5 38.5t-13.5 34.5q-8 16 -24 30.5t-31 10.5q-50 -16 -74 -190 q-21 -149 -21 -319q0 -29 1 -58q4 -204 30 -379t64 -194q5 0 9 -1.5t9 5t8 10.5t7 14t6 16t5 16.5t4 15t3 12.5l2 8q0 1 2.5 8t3 8.5t3 7t4 7t4.5 5t6 5t7 3t9 1.5h33.5t25.5 -9.5t3 -29.5q-15 -71 -45 -115q-19 -28 -41 -46q-23 -17 -43 -23q-17 -5 -32 -5h-6q-18 1 -30 9 q-47 30 -85.5 97.5t-59.5 141.5t-35.5 154t-19.5 132t-5 79z" />
<glyph unicode="D" horiz-adv-x="595" d="M51 1395l10 -1190q0 -53 70 -53q120 3 215 65q38 24 62 59q25 33 71 123q51 109 63 286q3 42 3 83q-1 137 -29 277q-38 183 -117 292q-40 54 -109 80q-65 25 -123 25h-7q-61 -2 -97 -23q-12 -6 -12 -24zM170 1358q76 -6 142.5 -92.5t102.5 -209.5t36 -243 q0 -451 -265 -541q0 12 -3 250t-6.5 512t-6.5 324z" />
<glyph unicode="E" horiz-adv-x="444" d="M53 176q4 -22 13 -22q28 -3 65 -3q39 -1 86 3q92 8 129 18q11 3 16.5 17.5t2.5 27.5q-5 23 -33 23q-13 0 -81 -5.5t-71 -5.5q1 140 1 229t-1 126l-4 323q48 2 162 21q14 1 14 26.5t-18 26.5q-14 2 -45 0t-69 -6t-42 -4q-1 33 -1 83t1 117t1 118t-1 85q10 -2 67 -2h32 q87 0 100 8q16 8 16 31q0 21 -20 25h-6q-10 1 -31 2t-31 2q-59 0 -90 2q-14 0 -45 -2t-47 -2h-33q-16 5 -24 0l-5 -2q-4 -4 -4 -6q-4 -7 -4 -37v-64v-1034q-2 -39 -2 -69t2 -50z" />
<glyph unicode="F" horiz-adv-x="466" d="M51 787q0 604 6 622q2 8 5.5 12.5t9.5 6.5t10.5 2.5t13.5 1t13 0.5h40q74 0 179 -5q56 0 75 -6q13 -6 13 -22q0 -10 -8 -15q-14 -10 -60 -10h-147q-21 0 -21 -22q-2 -49 -2 -271v-102q16 -1 52 0.5t68 3.5t34 2q12 -2 16.5 -14.5t1 -25t-11.5 -13.5q-14 -2 -81.5 -11 t-80.5 -12l2 -86q12 -411 12 -569q0 -95 -4 -100q-14 -14 -64 -15h-6q-46 0 -53 17q-12 27 -12 631z" />
<glyph unicode="G" horiz-adv-x="493" d="M57 522q16 -271 70 -332q41 -41 92 -41q9 0 19 1q62 9 96 59q26 37 34 54t17 50q22 65 33 162q6 54 13 146.5t11 204.5v39q0 75 -12 83q-14 16 -65 16q-12 0 -27 -1q-76 -5 -76 -33q-1 -14 9 -22.5t22 -8.5q4 0 30 2t29 -4q15 -10 15 -76q0 -4 -1.5 -38t-3.5 -66 t-6 -82.5t-9 -95t-12 -94.5t-16.5 -89t-21.5 -72t-27.5 -50.5t-33.5 -16.5q-33 4 -41 381q-1 43 -1 89q0 108 5 235q3 141 18 282q8 65 14 96q3 21 20.5 48.5t37.5 11.5q3 -3 18 -24t27 -23q13 -3 29.5 5.5t21.5 20.5q1 4 1 8q0 26 -44 70q-14 18 -42 24q-15 3 -30 3 q-12 0 -24 -2q-58 -7 -115 -68q-44 -51 -67 -316q-14 -155 -14 -314q0 -110 7 -222z" />
<glyph unicode="H" horiz-adv-x="622" d="M51 1341q1 -43 2 -129t2 -129q0 -58 1 -176t1 -178q0 -55 1 -166t1 -168v-194q0 -9 2 -16t7.5 -11.5t10 -8t13.5 -5.5t14.5 -3.5t16 -2t15.5 -0.5h16h14q52 0 57 34v33q-1 13 -2 38t-2 38q0 17 -1 52t-1 52l-16 353q0 9 -2.5 45t-3 55t3.5 31q6 6 32 6q91 0 177 8 q27 3 24 -20v-146v-221v-21q0 -47 3 -137q4 -112 7 -137q0 -2 1 -12.5t1.5 -15.5t3 -12.5t6.5 -12.5t11 -8q11 -6 36 -6q4 0 7 -1q20 0 31 3q24 6 29 115q2 54 2 125t-2 158q-5 174 -5 200q0 47 2.5 181.5t4.5 218.5q1 36 0 66q0 40 -1 70q-1 8 0 39t-0.5 59t-5.5 37 q-6 15 -49 15q-46 0 -57 -6q-6 -2 -10 -14t-6 -31.5t-3.5 -40t-2 -46t-0.5 -43.5t0.5 -39t0.5 -26q-2 -76 -2 -180q0 -25 -24 -25h-8q-23 0 -101.5 -3t-98.5 -3h-7l-4 2q-5 15 -5 264q0 39 -4 113q0 3 0.5 14t0.5 18t-2 15.5t-5 13.5q-13 15 -46 15q-16 0 -38 -4 q-43 -7 -43 -48v-41z" />
<glyph unicode="I" horiz-adv-x="239" d="M51 1362q0 -72 2 -109v-327q0 -56 1 -168t1 -168q0 -288 2 -346v-23q6 -44 15 -51q8 -8 57 -14q8 -1 15 -1q16 1 28 9q16 12 16 36q0 5 -2 84q-2 76 -2 164v77v55q1 46 1 122v131q-2 173 -4 359q-1 124 -1 169v25q3 14 -4 26t-18 15q-39 11 -66 11q-11 0 -20 -2 q-21 -4 -21 -74z" />
<glyph unicode="J" horiz-adv-x="440" d="M52 556q3 -223 20 -294q17 -60 55 -83t92 -29h12q83 0 129 81q20 39 26 223q3 107 3 206q0 72 -2 140q-4 162 -6 171q-1 10 -1 103v114v114q0 93 -1 103q-3 27 -45 37q-12 2 -23 2q-24 0 -37 -14q-10 -12 -10 -58q-1 -16 -2 -47.5t-2 -46.5v-19q0 -39 2 -133 q3 -126 4 -263v-61q0 -107 -2 -217q-4 -141 -19 -232t-42 -91q-31 0 -45 116q-12 94 -12 208v56q4 146 20 243q4 27 -16.5 40.5t-44.5 5t-31 -35.5q-22 -106 -22 -298v-41z" />
<glyph unicode="K" horiz-adv-x="595" d="M52 1376.5q0 7.5 1 16.5t5 15t10 7q23 4 71 4q27 0 27 -53q0 -51 1.5 -136t2.5 -150l2 -64q1 -1 44.5 79.5t86 160t51.5 96.5q21 40 35 44q10 3 21 -5q28 -22 31 -33.5t-11 -40.5l-197 -385q271 -665 283 -692q1 -3 8.5 -17.5t11.5 -24.5t7 -23q1 -6 1 -10q0 -6 -2 -12 q-4 -9 -16 -12q-8 -2 -15 -2q-26 0 -42 31q-13 22 -153 341t-144 339l18 -672q0 -43 -46 -43q-22 0 -56 10q-16 5 -20 27q-6 23 -8.5 52.5t-2.5 50.5t1 57t1 51q0 57 -1 172t-1 174q-1 64 -2 188.5t-2 182.5v250q0 1 -0.5 10t-0.5 16.5z" />
<glyph unicode="L" horiz-adv-x="417" d="M53 162q5 -23 13 -23q28 -3 65 -3q39 0 85 4q92 8 130 18q10 4 16 18q4 9 4 18q0 5 -1 9q-5 22 -33 22q-13 0 -81 -5t-71 -5q1 140 1 228.5t-1 125.5q-3 63 -3 241q1 68 1 150q1 182 0 286v104q0 73 -55 73q-3 -1 -17 1q-10 1 -19 2h-5q-10 0 -16 -5q-1 0 -2.5 -1 t-2.5 -1q-8 -10 -8 -41v-63v-1034q-2 -39 -2 -69t2 -50z" />
<glyph unicode="M" horiz-adv-x="915" d="M51 1188v-49q-1 -81 1 -261q2 -250 3 -270q0 -16 0.5 -53.5t-0.5 -96t-1 -109.5t1 -95q1 -87 6 -96q11 -20 42 -24q7 -1 14 -1q23 1 45 11q28 14 28 36q1 74 1 101t-2 101.5t-3 100.5q-4 130 -8 402l-2 71q-2 70 -2.5 115.5t2.5 61.5q12 -37 35.5 -124t34.5 -122 q41 -131 127 -393q10 -31 28 -88.5t34 -104t32 -86.5q1 -1 5 -11t5.5 -13t5.5 -10t7.5 -10t9 -6t12.5 -3q14 -1 22.5 6.5t11.5 15t7 23.5q4 13 25 106l86 400q12 52 34 160.5t37 184t17 75.5q4 -1 5.5 -86t3 -229t1.5 -171q0 -70 3 -245.5t3 -176.5q0 -53 18 -69 q16 -11 36.5 -11t33.5 13q7 7 8 26v13q0 14 -1 30q-2 24 -1 31l-6 490q-9 575 -18 634v7q-5 22 -12 29.5t-29 8.5h-10q-9 -1 -21 -1q-22 -2 -29 -1q-6 0 -15 0.5t-13.5 0.5t-10.5 -1.5t-10.5 -6.5t-9.5 -13q-6 -12 -11.5 -29t-8 -29t-6 -33t-5.5 -30q-4 -21 -44.5 -229.5 t-79.5 -405.5t-42 -209q1 4 -17 62.5t-46 147t-39 126.5q-81 287 -121 416q-16 54 -53 158q-4 8 -11.5 25.5t-11.5 25.5q-7 16 -16 20t-29 6q-10 1 -20 1q-27 0 -41 -9q-6 -4 -10 -8.5t-6.5 -11t-4 -11t-2 -12.5t-0.5 -12v-13.5v-11.5q1 -17 1 -39q0 -45 -3 -112z" />
<glyph unicode="N" horiz-adv-x="673" d="M52 255q0 -78 5 -95q2 -6 5.5 -10t6.5 -6.5t10 -3.5t9.5 -1h11.5h11q47 3 59 15q8 7 10 20q3 35 3 317v156q-1 429 -3 473q3 -4 58.5 -181t116 -370t67.5 -215q7 -23 47 -135q11 -31 31 -57q16 -20 68 -24q8 -1 15 -1q37 0 38 21q0 4 0.5 81.5t0.5 182.5v238v259.5 t-0.5 235t-2 177t-3.5 73.5t-6 8.5t-10 5.5t-10 3.5t-13 2t-12 0.5h-13h-11q-29 0 -39 -8t-10 -45l12 -985q-10 15 -123 367t-131 413q-7 22 -19.5 56.5t-31.5 82t-38 80.5t-30 33l-19 1q-18 1 -30 -0.5t-19 -6.5q-8 -6 -8 -33v-813q0 -19 -2 -127q-2 -86 -2 -153 q1 -16 1 -32z" />
<glyph unicode="O" horiz-adv-x="567" d="M51 752q0 231 28 366q43 209 152 285q21 15 60 19q23 3 44 2q14 0 27 -1q63 -9 102 -117q38 -110 46 -266q4 -78 4 -158q0 -81 -4 -164q-8 -166 -36.5 -306t-65.5 -199q-25 -37 -56 -57q-29 -19 -52 -18h-2q-24 1 -42 9q-58 37 -102 127.5t-64.5 192t-29.5 175t-9 110.5z M205 838q2 -225 28 -408.5t66 -204.5q2 -1 5 -1l49 103q45 185 56 481q1 25 1 50q1 35 1 67q-1 174 -23 296q-26 145 -89 145q-48 -14 -72 -165q-22 -139 -22 -331v-32z" />
<glyph unicode="P" horiz-adv-x="540" d="M50 1385v-6q0 -9 2 -20q2 -15 1 -20q3 -49 3 -81q0 -16 -1 -29q0 -31 -0.5 -87.5t-0.5 -102.5t1 -87l4 -696q0 -5 0.5 -29t3 -41.5t9.5 -27.5q17 -21 56 -21q8 1 18 1q54 6 59 40q4 18 4 58q-3 36 -6.5 314t-3.5 347q3 0 26 1t42.5 4t47.5 11t56.5 25.5t54.5 44.5 q24 24 41 74q17 51 21 111q1 9 1 18q1 52 -21 105q-26 63 -83 102q-46 30 -158 30q-20 0 -59 1t-57 1h-9h-10t-8.5 -0.5t-9 -2t-7 -3.5t-7 -5.5t-5.5 -8.5q-5 -9 -5 -20zM193 1378q27 6 51 6q56 0 90 -34q62 -69 62 -172v-6q-2 -108 -56 -162q-34 -34 -61.5 -44t-79.5 -10 q0 46 -3 196.5t-3 225.5z" />
<glyph unicode="Q" horiz-adv-x="636" d="M51 752q0 231 28 366q43 209 152 285q21 14 60 19q23 2 44 2q14 0 27 -1q68 -10 107.5 -135.5t44.5 -297.5q2 -44 2 -89q0 -129 -12 -264q-16 -181 -49 -305q17 -59 39 -90t38.5 -35t31 -8t18.5 -15q0 -1 1 -2t1 -2q2 -5 2 -10q0 -14 -16 -22q-22 -11 -44 -9 q-21 1 -38.5 13.5t-26.5 25t-22 34.5t-17 28q-7 -18 -14 -27q-25 -37 -56 -57q-29 -18 -52 -18h-2q-24 1 -42 9q-58 37 -102 127.5t-64.5 192t-29.5 175t-9 110.5zM205 798q4 -203 30 -378.5t64 -194.5q2 -1 5 -1q11 0 24 26q14 31 28 92l-4 8q-31 39 -43 49q-42 29 -39 64 q3 19 18.5 26t30.5 0q5 -2 10 -6t10.5 -9.5l8.5 -8.5l27 -27q28 177 35 387q2 46 2 89q0 157 -21 286q-27 166 -92 166q-50 -16 -74 -190q-21 -149 -21 -320q0 -28 1 -58z" />
<glyph unicode="R" horiz-adv-x="616" d="M50 1385q0 11 5 20q3 5 5.5 8.5t7 5.5t7 3.5t9 2t8.5 0.5h10h9q19 0 58 -1t58 -1q112 0 158 -30q57 -39 83 -102q22 -54 21 -105q-1 -8 -1 -18q-4 -60 -21 -110.5t-41 -74.5q-56 -56 -125 -74q8 -2 15 -8.5t13 -16.5t10 -18.5t8 -22.5t6 -21.5t5 -21.5t4 -16 q14 -45 58 -245q26 -144 49 -232q17 -57 27 -78q5 -15 12 -20q4 -4 10.5 -7.5t15.5 -6.5t13 -5q10 -5 16 -14q2 -6 2 -10q0 -23 -36 -25q-9 0 -35 2q-6 0 -11.5 1.5t-9.5 2.5t-8.5 5t-7 5.5t-7.5 7t-6 7t-6 8.5t-5.5 8t-5.5 9.5t-5 9.5q-11 18 -22 59.5t-13 46.5 q-1 4 -26 142t-62 267.5t-78 158.5q-11 7 -22 10q0 -81 3.5 -350.5t6.5 -304.5q0 -40 -4 -58q-5 -34 -59 -40q-9 -1 -18 -1q-39 0 -56 21q-7 10 -9.5 27.5t-3 41.5t-0.5 29l-4 696q-1 41 -1 87t0.5 102.5t0.5 87.5q1 12 1 29q0 33 -3 81q1 5 -1 20q-1 11 -2 20v6zM193 1378 q0 -75 3 -225.5t3 -196.5q52 0 79.5 10t61.5 44q54 54 56 162v6q0 103 -62 172q-34 34 -90 34q-24 0 -51 -6z" />
<glyph unicode="S" horiz-adv-x="481" d="M50 474q2 -44 3 -62q13 -97 56 -170q17 -35 36 -56q26 -26 95 -43q13 -2 25 -2q44 0 87 29q16 12 28 28.5t19 37.5t11.5 40t5 44.5t0.5 43t-3.5 43t-5 36.5t-5 31.5t-3.5 21.5q-3 14 -47 198q-42 184 -78 356q-32 154 -32 206v10q5 78 38 89q23 7 44 -26q22 -34 26 -72 q2 -18 1 -34q0 -17 -2 -33q-4 -30 -1 -39q6 -15 36 -15.5t40 11.5q5 5 6 21v7q0 14 -2 37q-4 29 -4 33q-8 110 -64 152q-29 20 -68 24q-9 1 -19 1q-29 0 -59 -10q-38 -12 -70.5 -49.5t-45.5 -94.5q-3 -16 -3 -38q1 -38 9 -92q14 -88 41.5 -189t56 -216t47.5 -211 q16 -81 16 -149q-1 -13 -1 -25q-4 -76 -37 -104q-14 -9 -25.5 -10.5t-22 9.5t-18.5 24t-14.5 31.5t-10.5 33t-7 28.5q-3 19 -3 40t3 44q6 46 15.5 81.5t9.5 41.5q0 14 -22.5 26.5t-43.5 12.5q-19 0 -29 -44q-9 -39 -9 -77v-11z" />
<glyph unicode="T" horiz-adv-x="604" d="M53 1384q7 -12 41 -12q32 0 76 -4q36 -4 61 -4h11q4 0 4 -207q0 -283 -2 -424q0 -266 -2 -399v-103v-28q-2 -16 5.5 -35t20.5 -25q19 -11 51 -11h9q38 2 53 26q4 10 4 37q4 86 4 127q2 104 1.5 208t-1.5 209q0 72 -1 215t-1 213q0 2 -1 57t-1.5 93t0.5 49l72 6 q63 5 86 21q6 3 9 11q1 4 1 7q0 4 -2 8q-4 4 -11 6.5t-18.5 3.5t-13.5 1h-74h-121q-31 0 -178 -5q-4 0 -19 1t-25.5 0t-18.5 -5q-12 -5 -18 -16q-4 -6 -3 -12q0 -5 2 -9z" />
<glyph unicode="U" horiz-adv-x="520" d="M51 500q0 -74 12.5 -133t32 -96t46 -63.5t52.5 -39t54 -18.5q25 -5 43 -5q2 1 3 1q19 0 34 4q22 6 36 13t35 35.5t33 73.5t21.5 132t9.5 206q0 29 2 222q1 194 3 367q1 104 1 148v33q-3 20 -10 31q-16 21 -34.5 21t-27.5 -25q-2 -5 -2 -39q0 -37 -2 -55q0 -97 -2 -146 q0 -241 -2 -362q-1 -48 -5.5 -167.5t-4.5 -184.5q0 -105 -11 -156.5t-31.5 -64.5t-60.5 -5q-15 2 -26 17.5t-16.5 41.5t-9 54t-4.5 63.5t-1 61t1 57t1 41.5q0 745 6 803v9q1 31 -25 46t-61 15h-8q-16 0 -24 -2q-19 -3 -31 -15q-6 -6 -9 -16t-3 -18.5t1 -22.5t1 -19 q-17 -612 -17 -843z" />
<glyph unicode="V" horiz-adv-x="641" d="M53 1356q-1 11 -1 20q0 27 9 39q8 10 37.5 16t42.5 3q16 -4 23 -12.5t12 -26.5q5 -27 70.5 -512t70.5 -529q4 0 18.5 83.5t14.5 94.5q13 64 36.5 194t35.5 194q58 290 76 372q13 58 20 82q11 43 21 53q10 9 26 9t23 -13q2 -4 2 -18q0 -63 -42 -319q-52 -314 -119 -622.5 t-89 -313.5q-18 -5 -48 -5q-8 1 -16 1q-42 2 -53 12q-18 18 -47 203.5t-54 394t-46.5 401t-22.5 199.5z" />
<glyph unicode="W" horiz-adv-x="1005" d="M53 1356q-1 12 -1 21q0 25 9 38q8 10 37.5 16t42.5 3q16 -4 23 -12.5t12 -26.5q5 -27 70.5 -512t70.5 -529q2 0 35.5 261.5t68 527t40.5 272.5q18 22 48 22q7 1 15 -1q42 -6 49 -41q3 -14 22.5 -176t40.5 -346.5t40 -349t20 -169.5q2 0 37.5 206.5t76 443t52.5 288.5 l19 82q2 5 5 16.5t6.5 20.5t8.5 14q11 11 27 11h1q15 0 23 -13q2 -4 2 -20q0 -64 -38 -317q-48 -315 -111.5 -623.5t-85.5 -312.5q-17 -5 -46 -5h-18q-42 2 -53 13q-9 9 -18.5 58t-20.5 136t-20 172t-22.5 208.5t-22.5 203.5q-10 -58 -27 -154.5t-27.5 -159t-25 -143.5 t-25 -132.5t-21 -100t-18.5 -72t-14 -24.5q-17 -5 -46 -5h-18q-42 2 -53 13q-18 18 -47 203.5t-54 394t-46.5 401t-22.5 199.5z" />
<glyph unicode="X" horiz-adv-x="720" d="M55 158q-4 7 -4 19q0 14 6 36q1 4 4.5 11.5t4.5 11.5q19 66 108 337q19 61 55.5 172t51.5 156q2 4 5 14.5t5 14.5l-88 235q-22 61 -39 103q-1 2 -4 12t-5.5 18t-4.5 18t-1.5 17t3.5 10q25 17 61 13q21 0 31 -33q0 -1 92 -250l49 150q23 72 35 106q18 66 42 66h1 q31 -2 82 -35q22 -18 10 -49q-3 -4 -22.5 -65.5t-56.5 -176.5t-64 -197l118 -317q20 -57 77 -206t57 -150q6 -15 6 -26q0 -7 -3 -15q-7 -16 -28 -19q-35 -6 -43 -2q-17 11 -27 47q-2 3 -5 10.5t-5 10.5q-17 44 -123 330l-69 192q-16 -48 -40 -119.5t-30 -87.5 q-12 -33 -32 -95t-36.5 -115.5t-32 -103.5t-16.5 -54q-7 -26 -28 -32q-7 -2 -14 -3q-15 0 -32 10q-44 16 -51 31z" />
<glyph unicode="Y" horiz-adv-x="555" d="M53 1417q17 17 60 21q22 0 34 -31l168 -338q5 35 16.5 104.5t16.5 104.5l19 111q10 69 32 71h5q31 0 81 -22q20 -11 20 -31q0 -7 -3 -16q-2 -8 -30.5 -188.5t-60.5 -382t-42 -249.5q-4 -20 -62 -383q-4 -27 -23 -36q-10 -5 -21 -5q-12 0 -25 5q-5 2 -18.5 5.5t-23.5 7.5 t-14 9q-9 13 -4 57q0 3 1 11t1 12q7 53 58 350q8 51 25.5 153.5t25.5 153.5l-19 37q-25 49 -74 148.5t-73 148.5l-49 101q-23 46 -23 63q0 6 2 8z" />
<glyph unicode="Z" horiz-adv-x="665" d="M53 202q-1 6 -1 12q0 8 2 17q4 18 12 41l6 21q18 51 121 336q88 240 118 323q58 154 115 318q11 31 39 106q0 4 2 8q-35 0 -106 -1t-107 -1q-53 0 -80 2q-34 0 -39 2q-21 8 -16 27.5t24 26.5q8 4 17.5 5t25 0t17.5 -1h166q19 0 57 2t57 2q7 1 16 1q18 0 46 -3 q48 -5 57 -12q11 -7 11 -23q0 -12 -7 -29q-2 -4 -12 -39q-2 -10 -10 -30l-43 -115q-19 -57 -59 -168.5t-60 -167.5l-98 -270q-4 -6 -9 -21q-21 -51 -75 -196t-54 -152q23 -5 76 -5h10q62 0 164.5 3.5t104.5 3.5h47q13 -3 18 -14q3 -9 3 -16q0 -3 -1 -5q-1 -5 -3 -9t-6 -7 t-6.5 -5t-8 -3.5t-8 -2t-9.5 -1t-9 -0.5h-10h-9q-36 0 -107.5 2t-107.5 2q-18 0 -102 -5q-38 -2 -62 -2q-29 0 -39 3q-2 0 -13 1t-17 2.5t-16 5.5t-14.5 11.5t-7.5 19.5z" />
<glyph unicode="[" horiz-adv-x="333" d="M20 322v530q1 24 3.5 67.5t3.5 63.5q2 22 3 103.5t3 113.5q-2 6 -2 23q0 29 12 39q3 3 8 3.5t12 -0.5t9 -1q6 0 17.5 1t16.5 1q24 0 74 -1t74 -1q2 0 12 0.5t15.5 0.5t13.5 -2.5t12 -7.5q6 -9 6 -22q-2 -8 -2 -21q-1 -21 -14.5 -27.5t-38.5 -6.5q-94 -4 -139 -4 q0 -8 1 -23.5t1 -22.5q1 -63 -3.5 -413.5t-4.5 -352.5q0 -30 2 -89t2 -89h2q45 0 139 -4q17 0 26 -1.5t17.5 -9.5t9.5 -24q0 -12 2 -18q0 -16 -6 -25q-4 -5 -11.5 -7t-13.5 -2t-15.5 0.5t-12.5 0.5q-24 0 -74 -1t-74 -1h-16q-8 0 -12 2h-6q-26 0 -29 2q-12 10 -12 39 q0 13 2 19q-6 21 -6 45q0 21 -3.5 62t-3.5 61z" />
<glyph unicode="\" horiz-adv-x="432" d="M0 1384q-3 12 18 25t37 18q8 3 13 0q3 -1 10 -12q4 -16 8 -24l20 -64q4 -15 13.5 -43.5t13.5 -42.5l31 -104q6 -19 17.5 -58t17.5 -59l37 -127l36 -129l37 -129q6 -21 17.5 -60.5t17.5 -60.5l31 -113q14 -55 26 -94l19 -74q8 -27 10 -43q5 -21 -2 -26q-8 -8 -25 -8 q-36 -8 -57 10q-6 7 -16 35q-14 32 -17 45q-7 30 -142 511.5t-151 545.5q-2 10 -9.5 36t-10.5 45z" />
<glyph unicode="]" horiz-adv-x="333" d="M20 131q0 -18 7 -25q4 -5 11.5 -7t13 -2t15.5 0.5t13 0.5q25 0 72.5 -1t72.5 -1h19q6 0 10 2h8q26 0 29 2q12 12 12 39q0 3 -1 9.5t-1 9.5q6 21 6 45q0 21 3 62t3 61l-2 530q0 66 -6 131q-1 16 -1.5 98t-2.5 119l2 23q0 27 -12 39q-3 3 -8 3.5t-12 -0.5t-9 -1 q-6 0 -18.5 1t-18.5 1q-25 0 -72.5 -1t-72.5 -1q-3 0 -13 0.5t-15.5 0.5t-13 -2t-11.5 -7q-7 -7 -7 -23q0 -4 1.5 -10.5t1.5 -9.5q0 -21 13.5 -28t39.5 -7q90 -4 139 -4q-1 -8 -2 -23t-2 -22q-1 -71 3.5 -391t6.5 -375q0 -2 -6 -179h-2q-47 0 -137 -4q-18 0 -27.5 -1.5 t-17.5 -9t-8 -23.5q0 -3 -1.5 -9.5t-1.5 -9.5z" />
<glyph unicode="^" />
<glyph unicode="_" d="M764 -270q-2 10 1.5 21.5t14.5 12.5q30 5 33 5q74 2 147.5 1.5t164 -2t92.5 -1.5q13 0 26 -9q11 -9 10 -24.5t-14 -24.5q-20 -12 -33 -12h-90q-77 0 -229 4q-61 0 -92 2q-28 3 -31 27z" />
<glyph unicode="a" horiz-adv-x="684" d="M58 275q-6 36 -6 73q0 66 18 136q30 110 78.5 210.5t93.5 139.5q41 38 78 38q11 0 22 -4q33 -12 55 -55q10 -17 13 -31q0 -1 3.5 -11.5t8.5 -14.5q4 -2 24 -2h29q19 0 27 -7.5t8 -27.5q0 -9 -10 -83t-20 -150q-8 -66 -8 -130v-20q2 -74 22 -96q7 -8 15.5 -13t23 -8t32 12 t33.5 48q3 7 6 21t6.5 22t7.5 6q3 0 5 -2q8 -8 9 -30v-6q0 -20 -5 -44q-6 -28 -26.5 -54.5t-51.5 -39.5q-15 -6 -35 -7h-4q-20 -1 -44 9q-26 10 -48 33t-38 71t-18 115q-1 -1 -7.5 -20.5t-14 -40t-22 -49.5t-30 -50.5t-37.5 -42t-45.5 -24t-53.5 3.5q-77 27 -94 125z M160 303q4 -53 26 -65q9 -5 18 -5q14 0 28 11q24 18 42 51q39 79 84 213q13 123 13 203q0 35 -13.5 75.5t-31.5 40.5q-54 0 -97 -101t-59 -222q-12 -85 -12 -150q0 -27 2 -51z" />
<glyph unicode="b" horiz-adv-x="538" d="M51 369q0 99 16.5 490.5t28.5 414.5q4 8 30 12q7 1 15 1q18 0 35 -6q24 -9 24 -30q0 -5 -4 -157t-8 -296q-2 -92 -3 -125q0 -19 1 -20q28 71 67.5 115t76.5 56q22 7 43 7q15 1 27 -3q32 -8 53 -33q27 -31 34 -107q2 -22 2 -45q-1 -57 -13 -123q-18 -92 -54 -179 t-104.5 -150t-155.5 -72q-10 -2 -20 -2q-26 0 -49 12q-31 16 -34 49q-8 136 -8 191zM178 223q43 0 90 51.5t81 127.5q33 76 55 156q18 66 18 120v23q-4 64 -39 83q-7 4 -14 4q-29 0 -67 -51q-48 -64 -82 -142.5t-34 -107.5q0 -31 -4 -133t-4 -131z" />
<glyph unicode="c" horiz-adv-x="495" d="M51 451q0 75 16.5 145t41.5 118t44.5 76.5t34.5 43.5q40 40 82 54q27 10 51 9q13 -1 23 -3q32 -8 56 -31t35 -57q8 -25 8 -55q-1 -9 -1 -19q-4 -41 -24 -79q-5 -9 -18.5 -9.5t-20.5 8t0 26.5q10 23 11.5 49.5t-5 48.5t-20.5 36t-31.5 15.5t-40.5 -18t-45 -59.5 q-48 -83 -60 -219q-4 -40 -4 -77q0 -88 21 -158q26 -85 75 -85q8 0 17 2q28 7 48 26.5t27.5 39t12.5 37t6 18.5q2 2 9 2.5t10 -0.5q5 -4 6 -22t-11 -44.5t-28 -51.5t-44 -43t-59 -19q-8 -1 -17 -1q-13 0 -27 2q-23 3 -57 20t-59.5 46.5t-44 88.5t-18.5 139z" />
<glyph unicode="d" horiz-adv-x="684" d="M58 278q-6 36 -6 74q0 65 18 135q30 111 78.5 211.5t93.5 139.5q43 38 79 38q43 0 74 -55q0 -1 1 24.5t2 67.5t2.5 93t3 103t3.5 95.5t3.5 72.5t3.5 32q3 6 8.5 9.5t16.5 5t16 2t19 0.5l15 -1q19 0 27 -8t8 -27q0 -5 -10.5 -126t-20.5 -273q-9 -152 -15 -309 q-2 -51 -2 -96q0 -95 8 -167q12 -106 42 -106q38 0 72 70q3 7 6 21t6.5 22t7.5 6q3 0 5 -2q8 -8 9 -30v-7q0 -19 -5 -43q-6 -28 -26.5 -55t-51.5 -41q-12 -5 -27.5 -5t-35 5t-38.5 21.5t-35 42t-26.5 69.5t-11.5 100q-1 -1 -8 -20.5t-16 -41t-24.5 -51.5t-32.5 -53t-40 -44 t-47.5 -25.5t-54.5 2.5q-77 26 -94 124zM160 307q4 -53 26 -65q9 -5 18 -6q14 0 28 12q24 18 42 51q39 79 84 213q13 121 13 203q0 35 -13.5 75.5t-31.5 40.5q-54 0 -97 -101t-59 -222q-12 -85 -12 -150q0 -27 2 -51z" />
<glyph unicode="e" horiz-adv-x="618" d="M53 520q-1 4 -1 8q0 6 4 12q8 8 20 9q16 0 53 -23q15 107 56.5 184.5t72.5 106.5q72 64 130 64q3 -1 6 -1q60 -4 94 -56q25 -39 25 -87q0 -17 -3 -35q-8 -34 -16 -51q-14 -32 -27 -55q-32 -54 -82 -92q-46 -34 -106 -49l-23 -6v-15q0 -104 26 -168q28 -70 85 -69 q26 0 59 26t56.5 56.5t42.5 58t20 27.5q7 9 18 4q4 -2 3 -9q0 -8 -3 -20q-7 -24 -27.5 -56.5t-47.5 -64.5t-66 -55t-78 -25h-11l-33 2q-22 3 -56.5 20t-60 46t-44 88t-18.5 139q0 21 2 31q-29 11 -45 24q-23 19 -25 31zM258 512q36 5 78 27q61 33 98 98q19 37 23 49 q3 17 3 36v19q-2 29 -17 46t-33 23q-4 1 -8 1q-16 0 -36 -15q-26 -19 -49 -63q-49 -85 -59 -221z" />
<glyph unicode="f" horiz-adv-x="624" d="M78 911q11 29 69 29t60 8q4 34 9 63.5t8.5 48.5t9.5 39.5t8.5 28t8.5 24t7 17.5q23 65 57 101.5t65 43.5q18 4 36 4q12 0 24 -2q30 -4 45.5 -11.5t18.5 -10.5q50 -30 50 -103q0 -23 -5 -50q-8 -39 -23 -62q-7 -6 -25.5 -4.5t-33 18.5t-6.5 40l2 5l3 9t2.5 9.5t1 11 t-1.5 11t-3.5 11t-8 9.5t-12.5 9q-7 3 -14 3q-24 0 -47 -41q-30 -52 -43 -120q-10 -48 -10 -78q0 -14 2 -24q19 -8 45 -7.5t49 4.5t37 -5t10 -35q-3 -25 -43 -30q-19 -2 -36 -2q-19 0 -36 3q-33 5 -39 -6l3 -206q0 -10 2 -120t5 -198t7 -121q9 -33 4 -55t-39 -29 q-11 -2 -21 -2q-20 0 -32 10q-17 15 -25 56q-4 19 -8 105t-7.5 190.5t-4.5 126.5l-2 239q0 6 -4 6h-43q-5 0 -15.5 -0.5t-17.5 -0.5t-17 0.5t-14.5 3t-11.5 6.5q-4 3 -4 8z" />
<glyph unicode="g" horiz-adv-x="739" d="M61 -184q32 86 138 117q48 14 106 14q39 0 82 -6q19 291 23 303q-13 -38 -60.5 -76.5t-93.5 -38.5q-29 0 -43 4q-63 22 -87 91q-16 45 -16 98q0 28 4 58q13 86 42 175.5t69.5 161t75.5 102.5t65 36q9 1 17 1q19 0 33 -9q19 -13 33 -34.5t19.5 -37.5t6.5 -23q0 4 6 28 q3 25 21 60q3 5 6 8t8 4.5t7.5 2t11.5 0t12 -0.5q19 0 27 -7.5t8 -29.5q0 -32 -32 -428q-34 -408 -40 -457q101 -20 111 -22q19 -3 34 -12q24 -6 29 -11q0 -1 1 -3t1 -3q2 -4 2 -10t-3 -13q-5 -14 -15 -20q-22 -7 -50 -3.5t-66 11t-44 7.5q-2 0 -2.5 -4t-0.5 -9.5t-1 -7.5 q-1 -12 -5 -32t-13 -58t-27.5 -71.5t-44.5 -64t-67 -45.5q-27 -10 -57 -10q-17 0 -34 3q-122 18 -178 106q-30 48 -30 97q0 29 11 59zM150 -284q28 -56 86 -62q9 -1 18 -1q45 0 76 25q21 24 33 75t14 89l2 39q-6 0 -39.5 3.5t-57.5 3.5t-56 -12t-52 -38q-33 -43 -33 -82 q0 -20 9 -40zM221 289q4 -53 25 -65q9 -6 18 -6q14 0 29 12q25 18 41 51q32 61 84 211q14 122 14 204q0 35 -13.5 76t-31.5 41q-55 0 -97.5 -101t-59.5 -222q-12 -82 -12 -146q0 -29 3 -55z" />
<glyph unicode="h" horiz-adv-x="634" d="M51 395q0 92 17.5 490t27.5 420q4 9 30 13q7 1 15 2q18 0 35 -6q24 -8 22 -30q0 -7 -3.5 -159t-7.5 -298q-3 -117 -3 -141v-6q39 94 92 141q49 44 93 44q3 -1 7 -1q46 -4 77 -45q25 -35 27 -119v-32q0 -70 -8 -144q-10 -92 -20 -181q-6 -58 -7 -104q0 -24 2 -44 q5 -59 34 -62q17 0 35.5 20t34.5 52q3 7 6 21t6.5 22t7.5 6q2 0 4 -2q9 -9 9 -40q0 -28 -9 -58q-9 -32 -39 -58t-75 -26q-48 0 -85 44.5t-42 92.5v20v15q0 67 16 162q18 106 34 183q16 71 17 132q-1 5 -1 11q-2 66 -35 81q-7 3 -14 3q-29 0 -66 -52q-46 -65 -76.5 -142.5 t-30.5 -107.5q0 -63 -7 -177.5t-7 -146.5q0 -20 -8 -32.5t-17 -12.5h-11q-20 0 -28.5 1t-19 6.5t-15 18.5t-6.5 36q-8 91 -8 190z" />
<glyph unicode="i" horiz-adv-x="354" d="M51 297v21q-1 52 3 144q4 112 11 225.5t7 119.5q1 25 19 35t59 10q24 0 25 -55v-11q0 -58 -9 -190q-10 -146 -10 -260q0 -52 13.5 -92.5t31.5 -40.5q17 0 35 19.5t32 51.5q4 6 7.5 20t7 23t8.5 7q2 -2 4 -2q8 -8 8 -37t-9 -62t-39 -58.5t-75 -25.5q-49 0 -86.5 44 t-40.5 91q-2 8 -2 23zM72 1047q0 -17 21 -38t40 -24h1q20 1 44 27q24 28 29 49v12q-3 22 -24 38.5t-44 16.5q-12 0 -39.5 -33t-27.5 -48z" />
<glyph unicode="j" horiz-adv-x="718" d="M53 -209q23 90 126 132q68 28 163 28h18q-2 52 -4 235q-2 76 -2 158q0 115 2 242q4 216 17 248q2 5 6.5 8.5t8.5 5.5t11.5 3.5t11 2t13 1.5t10.5 1q20 2 29 -4.5t10 -26.5q4 -21 8 -395.5t4 -472.5q20 -2 56.5 -4t54.5 -4q30 -5 39 -8q20 0 27 -7l6 -6q2 -5 2 -10 q0 -7 -2 -14q-5 -15 -13 -21q-12 -9 -46 -10h-14q-28 0 -59 3l-40 3q-2 -1 -2 -22q0 -12 -0.5 -25t-4.5 -46.5t-11.5 -62t-23.5 -62.5t-37.5 -58t-56.5 -39q-33 -15 -74 -15h-5q-126 4 -192 88q-41 52 -41 111q0 21 5 43zM154 -300q34 -52 91 -52h1q58 1 90 35q18 27 24 79 q4 35 4 63q0 14 -1 27l-3 39q-7 -1 -39.5 -2t-57 -3.5t-54.5 -18t-47 -43.5q-23 -40 -23 -73q0 -28 15 -51zM346 1051q0 -19 20.5 -39.5t39.5 -22.5h1q20 0 43 27q24 27 29 49v12q-3 21 -23.5 38.5t-41.5 17.5q-13 0 -40.5 -33.5t-27.5 -48.5z" />
<glyph unicode="k" horiz-adv-x="641" d="M51 393q0 92 17.5 490t27.5 420q4 9 30 13q7 1 15 2q18 0 35 -6q24 -8 22 -30q-6 -150 -8 -309q-4 -136 -4 -205l-4 -154q27 16 87.5 75.5t110.5 112.5t52 54q17 12 37 -2q24 -14 27 -37q0 -26 -4 -31q-50 -61 -109.5 -122t-92.5 -91l-48 -42q0 -9 38 -89 q42 -86 99.5 -173t91.5 -87q47 0 76 37q9 12 18 27q11 22 21 14q3 -2 3 -7q0 -3 -1 -7q-2 -16 -15 -37q-30 -54 -84 -66q-10 -2 -28 -2q-24 0 -47.5 9.5t-43 27.5t-33 32t-28.5 34l-18 24q-4 6 -115 191q0 -18 -1 -44.5t-1 -33.5l-6 -109q-4 -58 -4 -88q0 -19 -8 -31 t-17 -12h-11q-20 0 -28.5 1t-19 6.5t-15 18.5t-6.5 36q-8 91 -8 190z" />
<glyph unicode="l" horiz-adv-x="366" d="M52 809q0 423 1 461q1 22 34 36q27 11 60 12q7 0 15 -1q5 0 8.5 -4t4.5 -11t1.5 -14t1 -15.5t0.5 -12.5q1 -9 1 -55q1 -57 -1 -171q-2 -205 -6 -431.5t-4 -264.5q0 -55 12 -95t33 -40q35 0 70 71q3 7 6 21.5t6.5 23.5t7.5 7q1 0 2 -1t2 -1q8 -8 8 -37t-8.5 -62 t-38.5 -58.5t-75 -25.5q-64 0 -99 41t-39 92q-2 8 -2 23q-1 89 -1 512z" />
<glyph unicode="m" horiz-adv-x="886" d="M51 375q0 100 6.5 271t16.5 192q5 10 30.5 14t49 -4t22.5 -29q0 -17 1 -50t1 -50q0 -98 -2 -174q37 196 103 246q25 20 55 20q6 -1 12 -1q37 -4 60 -38q20 -34 26 -62q4 -21 4 -49v-20q39 128 101 188q26 30 81 30h6q60 -2 85 -40q26 -45 26 -142v-7q-1 -102 -15 -205 q-12 -90 -12 -163v-20q2 -80 35 -83q31 0 62 71q2 5 4 12.5t3 14.5t2.5 13.5t3.5 9.5t5 2q1 0 2 -2t2 -3q8 -8 8 -40q1 -27 -7 -57q-8 -32 -35 -58.5t-68 -26.5h-2q-43 -1 -77 43q-35 44 -40 92v23q-1 18 -1 39q0 76 9 187q11 142 11 219t-25 77t-45.5 -17.5t-34.5 -50.5 t-24.5 -70t-16.5 -87.5t-10 -91.5t-5 -93.5t-1 -81.5q0 -14 -0.5 -31t0.5 -36v-39q0 -20 -7.5 -32.5t-15.5 -12.5q-5 0 -19 -0.5t-19.5 0t-16.5 2t-16.5 5t-12.5 10t-10.5 17t-5.5 25.5v9q0 28 3 136q2 78 2 151q0 55 -1 107q-3 122 -20 128h-2q-2 2 -5 2q-17 2 -33 -14.5 t-29.5 -52t-24 -70t-20.5 -88t-15.5 -85t-13.5 -82.5t-9 -59q-6 -67 -6 -135q1 -20 -7 -32.5t-18 -12.5q-12 -1 -22 -1h-10q-14 0 -23.5 5.5t-15.5 19t-9 38.5q-10 110 -10 180z" />
<glyph unicode="n" horiz-adv-x="636" d="M51 375q0 100 6.5 271t16.5 192q5 10 30.5 14t49 -4t22.5 -29q0 -154 6 -157q28 72 66 120t74 65q26 12 50 12q10 0 20 -2q34 -7 57 -38q24 -35 27 -111q1 -18 0 -38q0 -59 -6 -122q-10 -83 -19 -162q-5 -47 -5 -85q0 -25 2 -47q6 -52 35 -55q35 0 70 71q2 5 4 12.5 t3 14.5t3 13.5t4.5 9.5t5.5 2l2 -3q8 -8 9 -37v-6q0 -26 -7 -56q-8 -32 -37.5 -58t-74.5 -27q-49 0 -86.5 44t-42.5 91q0 4 -1 11.5t-1 11.5v22q0 63 14 145q16 96 32 160q14 57 14 107v12q-2 55 -36 70q-6 3 -13 3q-29 0 -65 -56q-45 -69 -74.5 -150.5t-29.5 -111.5v-21 q0 -61 -4 -156q-6 -112 -6 -139q1 -20 -7 -32.5t-18 -12.5q-12 -1 -22 -1h-10q-14 0 -23.5 5.5t-15.5 19t-9 38.5q-10 110 -10 180z" />
<glyph unicode="o" horiz-adv-x="514" d="M51 446q0 75 16.5 145t41.5 117.5t44.5 76t34.5 42.5q30 29 64 48t73 18h2q40 0 68 -31q41 -46 57 -160q10 -70 11 -142q-1 -46 -5 -92q-10 -119 -58.5 -214.5t-125.5 -103.5q-9 -1 -19 -1q-12 -1 -25 1q-24 2 -57 19.5t-59 47t-44.5 89t-18.5 140.5zM190 549 q-7 -58 -7 -107q0 -108 32 -176q22 -59 57 -59q54 0 89 73q35 74 45 170q6 57 6 113q0 39 -3 79q-7 96 -30 144q-13 27 -32 32q-5 1 -11 1q-12 -1 -26 -9q-18 -12 -34.5 -29.5t-27.5 -37.5q-43 -73 -58 -194z" />
<glyph unicode="p" horiz-adv-x="548" d="M52 227.5q0 537.5 1 575.5q1 22 33 35q29 12 65 12h11q6 -1 9.5 -8t4.5 -15t1.5 -19.5t0.5 -14.5q4 -70 4 -115q65 86 94 115q27 24 60 37q22 8 46 8q11 0 22 -2q35 -5 59 -33q26 -31 33 -105q2 -22 2 -45q0 -57 -12 -121q-17 -92 -53 -178.5t-104 -150t-153 -74.5 q1 -142 1 -244q0 -202 -5 -241q-10 -71 -41 -86q-17 -8 -31 -8q-12 0 -23 6q-23 12 -24 45q-1 89 -1 626.5zM188 231q42 0 88.5 51.5t80.5 128t55 155.5q18 65 18 121v23q-5 64 -39 83q-7 4 -15 4q-27 0 -65 -51q-48 -64 -81 -142.5t-33 -107.5q0 -25 -5 -128 q-4 -86 -4 -124v-13z" />
<glyph unicode="q" horiz-adv-x="759" d="M53 381q-3 37 -3 71q0 135 40 246q51 144 147 153q6 1 12 1q59 0 130 -55v96q1 23 33 37q27 11 60 11q7 0 15 -1q9 0 12.5 -8.5t4 -28t0.5 -20.5q0 -3 1 -8.5t1 -8.5q4 -51 4 -305q0 -169 -2 -428q90 -57 139.5 -129.5t57.5 -138.5q3 -25 3 -49q0 -40 -8 -80 q-14 -62 -40.5 -105t-55.5 -63q-23 -17 -53 -17q-7 0 -13 1q-39 4 -74.5 20.5t-60 50t-24.5 70.5q0 2 -1 241.5t-1 413.5q-63 -106 -94 -143q-60 -75 -108 -75q-26 0 -48 22q-61 61 -74 229zM159 481q-4 -37 -4 -70q0 -105 39 -163q2 -2 3 -4q10 -14 24 -14q29 0 75 60 q49 66 68 122q3 11 3 16v328q-27 19 -52 19q-45 0 -84 -59q-58 -88 -72 -235zM498 -340q3 -6 8.5 -14t21.5 -18q9 -5 18 -5q8 0 15 4q33 18 43 93q4 23 4 46q0 57 -18 121q-26 91 -84 140q-5 -350 -8 -367z" />
<glyph unicode="r" horiz-adv-x="503" d="M51 379q0 50 10 305q0 17 5 115q1 20 7 26.5t27 14.5q21 10 39 10q11 0 21 -4q26 -10 26 -47q1 -4 -1.5 -38.5t-4 -60t3.5 -34.5q21 71 53.5 112.5t65.5 50t62.5 -1t50.5 -34.5q12 -16 24 -40.5t12 -53t-26 -35.5q-25 -6 -38 8.5t-16 36t-9 44.5t-17 29q-7 4 -15 4 q-27 0 -57 -48q-40 -62 -64 -135.5t-24 -102.5q0 -82 -8 -238v-29q0 -56 -12 -88q-10 -22 -36 -25q-5 -1 -10 -1q-20 -1 -38 11q-22 14 -23 34q-8 136 -8 215z" />
<glyph unicode="s" horiz-adv-x="489" d="M60 236q-9 26 -9 57q0 40 15 88q7 20 17.5 26.5t17.5 -4t3 -30.5q-3 -24 -3 -44q0 -67 38 -92q23 -15 48 -15q29 0 61 21q60 38 67 101q3 28 -13 60.5t-41 60t-52.5 61.5t-48.5 66q-22 32 -30 72q-3 14 -3 29q0 26 10 52q31 92 112 116q23 7 46 6q44 0 84 -26 q57 -37 56 -101v-14q-4 -36 -27 -75q-8 -12 -17 -14q-11 -4 -21 3.5t-3 21.5q20 36 20 66q0 24 -13 45q-17 25 -41 25q-7 0 -16 -2q-42 -13 -61 -81q-4 -15 -4 -29q0 -22 10 -44q16 -36 45.5 -68t60 -65t52.5 -77q19 -39 18 -81v-11q-6 -103 -98 -161q-61 -38 -125 -38 q-20 0 -41 4q-87 15 -114 91z" />
<glyph unicode="t" horiz-adv-x="559" d="M55 911q3 8 10.5 14t14.5 9t20 4.5t19.5 1.5h20.5h16q57 0 59 10q6 56 9 135.5t9 135.5q3 31 13 41t37 10h6q31 0 39.5 -9.5t11.5 -41.5q1 -6 -1.5 -53t-4.5 -112q-1 -32 -1 -59t1 -49q11 -4 57 -4q26 3 44 3q23 0 34 -5q9 -4 14.5 -17.5t3.5 -23.5q-3 -25 -44 -30 q-20 -2 -37 -2q-19 1 -37 3q-33 6 -39 -6q0 -8 -1 -57t-1.5 -83.5t0.5 -59.5q1 -21 -1.5 -60.5t-5 -79.5t-4.5 -86q-1 -26 -1 -50v-34q2 -40 7.5 -72.5t19 -51.5t34.5 -19q36 0 61.5 29.5t40 58.5t23.5 29q2 -4 2 -21v-26q-2 -40 -44.5 -86.5t-103.5 -46.5q-42 0 -72.5 12.5 t-45.5 34t-22 42.5t-9 46q-2 8 -2 22q-2 74 -2.5 143.5t2.5 135.5v43l4 233q0 3 -4.5 4.5t-15 2t-20 0.5t-27 -0.5t-29.5 -0.5h-10.5h-11.5t-11 0.5t-10 1.5t-8 3t-7 5q-1 4 -3 8q-1 3 -1 6q0 7 4 19z" />
<glyph unicode="u" horiz-adv-x="643" d="M51 387q0 100 6.5 271t16.5 194q4 9 30 13q8 1 17 1q17 0 33 -6q24 -8 22 -29q0 -25 -4 -234t-4 -212v-9q0 -46 1.5 -65.5t12 -35t33.5 -15.5q39 0 77 73.5t46 127.5q5 41 16 346q0 6 0.5 15t0.5 12.5t0.5 9.5t1.5 8t3.5 5.5t5 4.5t7 2t10.5 1.5t14 0.5q29 0 43 -8 t13 -33l-2 -32q-2 -32 -3.5 -64t-3.5 -83t-2 -97v-98t3 -94t7.5 -76.5t13.5 -54t21 -19.5q17 0 31.5 10.5t23 26.5t15 34t10.5 33.5t7 25.5t6 9l4 -4q9 -9 9 -42q0 -29 -8 -63q-8 -36 -37.5 -64t-74.5 -28q-43 0 -72 31t-39 68t-10 73q-40 -98 -94 -141q-41 -33 -77 -33 q-11 0 -21 3q-46 13 -77.5 77.5t-31.5 163.5z" />
<glyph unicode="v" horiz-adv-x="567" d="M51 836q3 12 29 22q19 7 39 7q6 0 12 -1q26 -3 31 -24q57 -319 85 -434q38 -149 61 -149q5 0 9 7l2 4q19 24 140 570q5 20 19 26q6 2 12 3q7 0 14 -4q12 -7 12 -19q0 -19 -19 -126t-47 -237.5t-68 -234t-75 -103.5q-64 0 -118 102t-82.5 230.5t-44.5 234.5 q-12 85 -12 115q0 7 1 11z" />
<glyph unicode="w" horiz-adv-x="776" d="M51 836q3 12 29 22q19 7 39 7q6 0 12 -1q26 -3 31 -24l8 -56q71 -527 110 -527q6 0 11 11q4 6 15 145t20.5 279.5t9.5 143.5q8 22 48 28q14 2 24 2q19 0 24 -8q11 -8 14 -18q1 -7 8 -57q71 -526 109 -526q5 0 10 11q9 10 30 141t41.5 273t23.5 156q5 20 19 26q6 2 12 3 q7 0 14 -4q12 -7 12 -19q0 -39 -18.5 -197.5t-58.5 -331t-85 -172.5q-56 0 -96.5 103t-97.5 368q-9 -50 -14 -182.5t-20.5 -210t-55.5 -78.5h-1q-45 0 -86 67q-41 68 -67 165.5t-44 198.5q-17 102 -25 175q-5 52 -6 74q0 9 1 13z" />
<glyph unicode="x" horiz-adv-x="501" d="M51 175q0 5 2 11q39 88 137 291q-85 192 -98 250q-2 6 -6.5 21.5t-7.5 25t-5 23t-1 24.5q1 13 28 27t53 16h3q23 0 34 -20q1 -2 17 -45q31 -83 61 -156q65 135 86 174q11 21 28.5 22.5t29 -9.5t8.5 -21q-1 -9 -115 -258l139 -330q7 -11 7 -21q1 -18 -19 -35 q-23 -20 -49 -20q-9 0 -18 2q-32 8 -136 240q-87 -181 -106 -215q-17 -31 -48 -23q-24 6 -24 26z" />
<glyph unicode="y" horiz-adv-x="671" d="M59 -173q27 86 129 123q59 21 135 21q22 0 46 -2q0 31 1 95.5t1 97.5q0 53 8 155q-33 -76 -74.5 -118.5t-80.5 -44.5q-3 -1 -7 -1q-34 0 -64 23q-33 24 -53 82t-20 137q0 108 6 276t18 189q4 10 30 14q8 1 16 1q17 0 33 -5q24 -8 24 -28q-1 -18 -3 -128.5t-4 -212 t-3 -106.5v-9q0 -36 1 -52t5 -34.5t14 -25t27 -6.5q40 0 78.5 75t44.5 128q7 44 18 346q1 27 10 37t31 10h23q21 0 34 -10.5t15 -28.5v-11q0 -60 -6 -401q-7 -390 -9 -438q23 -4 66.5 -12.5t50.5 -9.5q6 -2 18.5 -5t18.5 -5q2 -1 8.5 -2.5t11.5 -3t7 -3.5l6 -6q1 -4 1 -8 q0 -7 -3 -16q-5 -13 -13 -19q-24 -8 -52 -7t-70 6t-46 5t-4 -22q0 -13 -1.5 -31.5t-7.5 -57t-20.5 -72t-36.5 -66t-61 -49.5q-32 -14 -70 -14q-9 0 -18 1q-122 10 -183 95q-35 49 -35 101q0 26 9 53zM152 -268q31 -54 88 -56h6q52 0 84 29q20 25 29 76t9 89l-1 38 q-6 0 -39 2h-31.5h-26.5q-23 -2 -53.5 -15.5t-48.5 -39.5q-28 -41 -28 -78q0 -23 12 -45z" />
<glyph unicode="z" horiz-adv-x="501" d="M53 834q-2 7 -2 13q0 16 14 24q6 3 13 3h266h8h43q18 0 29 -6t14 -16.5t3 -22t-4.5 -26.5t-8.5 -25.5t-9.5 -23t-6.5 -15.5q-30 -83 -102.5 -255t-123.5 -261q189 0 228 -2q22 -1 31 -16q6 -10 6 -19q0 -5 -2 -11q-5 -15 -17 -17q-25 -6 -162 -8h-81q-70 0 -97 2 q-26 2 -36 25q-5 11 -5 23q0 14 6 31q3 6 52 122.5t107.5 258t76.5 191.5q-44 -1 -83 -1q-65 0 -116 3q-33 1 -41 29z" />
<glyph unicode="{" horiz-adv-x="432" d="M20 893q7 6 21.5 12.5t19.5 9.5q15 11 24 30.5t11 31t4 43.5t2 35q0 6 2.5 64t8.5 87q2 18 14 49q17 38 33 52q24 24 104 34q50 4 83 -5.5t54 -45.5q9 -14 8.5 -36.5t-16.5 -32.5q-8 -4 -14 -5t-11 4t-6.5 8t-7.5 13q-15 31 -71 27q-30 -3 -54 -21q-12 -9 -19.5 -21.5 t-10 -29t-3.5 -27.5t0 -32.5t1 -28.5q0 -15 -1.5 -59.5t-0.5 -67.5q0 -40 -48 -96q18 -9 41 -66q4 -12 5 -27t0.5 -24t-2 -29.5t-1.5 -25.5q0 -47 -1 -140.5t-1 -140.5q-1 -22 0.5 -63t1.5 -54q0 -52 27 -71q34 -24 80 -13q17 3 37 19q4 4 8 12.5t6 11.5q13 15 29.5 13.5 t28 -18t4.5 -33.5q-8 -12 -13 -17q-25 -39 -65 -57q-27 -10 -74 -10q-64 0 -113 28q-45 23 -45 88q0 22 -3 63.5t-3 61.5v2q2 61 2 185v118q0 12 1.5 34t1.5 39.5t-3 33.5q-3 21 -15 43t-26 31q-6 4 -18.5 7t-16.5 7z" />
<glyph unicode="|" />
<glyph unicode="}" horiz-adv-x="432" d="M22.5 1253.5q0.5 -22.5 16.5 -30.5q10 -9 18 -5.5t11 7.5t8 16q15 32 74 27q29 -3 53 -21q12 -9 19.5 -21t10 -30.5t3.5 -26t0.5 -33.5t-0.5 -28q0 -15 1.5 -59.5t0.5 -67.5q0 -43 45 -96q-6 -3 -11 -8t-9.5 -14l-7 -14t-7 -17t-4.5 -13q-5 -15 -5.5 -31.5t0.5 -41.5 t1 -33q4 -188 4 -281q0 -20 -1 -59t-1 -58q0 -49 -27 -71q-34 -24 -80 -13q-17 3 -37 19q-4 4 -14 24q-18 26 -45 7.5t-16 -45.5q1 -2 4.5 -8.5t5.5 -8.5q29 -40 67 -57q25 -10 72 -10q66 0 115 28q45 23 45 88q0 22 2 63.5t2 61.5v2v185v118q0 12 -1.5 34t-1.5 39.5t3 33.5 q8 57 41 74q5 4 18 7t17 7q-7 6 -21.5 12.5t-19.5 9.5q-13 9 -21.5 20.5t-12 30.5t-5 27t-2 34t-0.5 28q-1 8 -3.5 65t-7.5 86q-2 18 -14 49q-15 34 -33 52q-24 24 -104 34q-50 4 -83.5 -5.5t-53.5 -45.5q-9 -14 -8.5 -36.5z" />
<glyph unicode="~" />
<glyph unicode="&#xa1;" />
<glyph unicode="&#xa2;" />
<glyph unicode="&#xa3;" />
<glyph unicode="&#xa4;" />
<glyph unicode="&#xa5;" />
<glyph unicode="&#xa6;" />
<glyph unicode="&#xa7;" />
<glyph unicode="&#xa9;" />
<glyph unicode="&#xab;" />
<glyph unicode="&#xac;" />
<glyph unicode="&#xad;" horiz-adv-x="421" d="M20 649q0 33 13 35q20 4 26 4q55 2 113.5 1t127 -3t71.5 -2q12 2 22 -8q8 -9 7 -24t-11 -25q-15 -11 -24 -11h-72q-119 0 -178 2q-6 1 -31.5 2t-38.5 3q-22 3 -25 26z" />
<glyph unicode="&#xae;" />
<glyph unicode="&#xb0;" />
<glyph unicode="&#xb1;" />
<glyph unicode="&#xb6;" />
<glyph unicode="&#xb7;" />
<glyph unicode="&#xbb;" />
<glyph unicode="&#xbc;" horiz-adv-x="815" d="M0 866q0 -10 1 -30.5t1 -30.5q0 -20 10 -37q5 -11 17 -14t20 4q1 0 2 1t2 1q0 6 1 17.5t1 17.5q0 9 -1.5 40.5t-0.5 49.5q0 8 1.5 94t2.5 173t0 110q0 6 -1 18.5t-1 19.5q-1 7 -19.5 14.5t-23.5 4.5l-2 -2q-3 -3 -4.5 -27.5t-1.5 -56.5t-2 -43q0 -10 -1 -32t-1 -34v-258z M59 172q-5 -20 4 -29q1 -1 23 -8q38 -4 57 12q7 6 17 35q11 27 16 45q6 25 142 506.5t151 548.5q18 64 20 82q4 20 -55 45h-10q-7 -4 -10 -12q-4 -7 -8 -25q-15 -44 -21 -63q-16 -47 -27 -86q-12 -35 -32 -105q-5 -20 -35 -117q-33 -117 -35 -127q-21 -64 -39 -129 q-30 -107 -35 -129q-34 -117 -35 -120l-30 -113q-14 -42 -27 -94q-3 -13 -10 -37.5t-10 -36.5q-1 -9 -11 -43zM518 537q6 -44 144 -31h2q-2 -13 -6 -127.5t-3 -175.5q0 -17 2 -17h19q8 -2 22 -2q13 0 15 2t2 13v37v249q1 3 2 10.5t2 10.5q8 1 28 1t29 1q20 5 23 12 q10 18 -31 17h-45q-4 11 2 45q0 14 1 36.5t1 34.5q2 42 2 60q0 6 -2 8q-15 10 -33 16q-15 9 -23.5 7.5t-17.5 -13.5q-3 -5 -61 -80t-70 -94q-9 -9 -4 -20zM573 537q63 85 101 141v-21q0 -21 -4 -45l-6 -69q-2 -6 -15 -6h-76z" />
<glyph unicode="&#xbd;" horiz-adv-x="737" d="M0 866q0 -10 1 -30.5t1 -30.5q0 -20 10 -37q5 -11 17 -14t20 4q1 0 2 1t2 1q0 6 1 17.5t1 17.5q0 9 -1.5 40.5t-0.5 49.5q0 8 1.5 94t2.5 173t0 110q0 6 -1 18.5t-1 19.5q-1 7 -19.5 14.5t-23.5 4.5l-2 -2q-3 -3 -4.5 -27.5t-1.5 -56.5t-2 -43q0 -10 -1 -32t-1 -34v-258z M59 172q-5 -20 4 -29q1 -1 23 -8q38 -4 57 12q7 6 17 35q11 27 16 45q6 25 142 506.5t151 548.5q18 64 20 82q4 20 -55 45h-10q-7 -4 -10 -12q-4 -7 -8 -25q-15 -44 -21 -63q-16 -47 -27 -86q-12 -35 -32 -105q-5 -20 -35 -117q-33 -117 -35 -127q-21 -64 -39 -129 q-30 -107 -35 -129q-34 -117 -35 -120l-30 -113q-14 -42 -27 -94q-3 -13 -10 -37.5t-10 -36.5q-1 -9 -11 -43zM489 39q0 -27 11 -33q14 -12 61 -2l60 6q60 8 84 17q13 3 28 14q4 0 4 8q-4 4 -8 4l-106 -6q-7 -1 -30 -5t-36 -5q7 18 16 53q27 74 29 78q81 202 88 209 q11 18 23 67.5t6.5 99.5t-43.5 50h-29q-72 -8 -98 -55q-1 -2 -6.5 -12.5t-8 -18.5t0.5 -12q11 -8 36 -2q5 3 8.5 7t6 11t4.5 10q5 9 22 31q10 10 24.5 14t27.5 -2q8 -4 9.5 -16.5t-2.5 -30t-11 -37t-16.5 -41t-17.5 -39t-16 -33.5t-10 -22q-4 -8 -20 -43t-23 -55 q-4 -7 -23 -59.5t-22 -65.5q-21 -72 -23 -84z" />
<glyph unicode="&#xbe;" horiz-adv-x="1028" d="M25 770q18 -59 100 -59q40 0 71 35.5t42.5 86t9.5 101t-29.5 86t-73.5 35.5q81 142 70 162q-8 13 -41 8q-10 -2 -104 -2q-5 0 -9.5 -0.5t-8.5 -3.5t-3 -9q2 -9 37 -18l76 2q-6 -13 -82 -143q-4 -7 0 -15q5 -17 37.5 -18.5t36.5 -3.5q30 -20 33 -77.5t-18 -113t-54 -71.5 q-14 -6 -30 2.5t-24 21.5q-20 31 21 117q7 15 4 18q-1 2 -2.5 3t-3 0t-3 -1.5t-4 -2.5t-3.5 -3q-1 0 -2 -1t-2 -1q-25 -20 -37.5 -62.5t-3.5 -72.5zM272 172q-5 -20 4 -29q0 -1 23 -8q38 -4 57 12q7 6 17 35q11 27 16 45q6 25 142 506.5t151 548.5q18 64 20 82q4 20 -55 45 h-10q-7 -4 -10 -12q-5 -11 -9 -25q-8 -23 -20 -63q-16 -47 -27 -86q-12 -35 -32 -105q-5 -20 -35 -117q-33 -117 -35 -127q-21 -64 -39 -129q-30 -107 -35 -129q-34 -117 -35 -120l-30 -113q-14 -42 -27 -94q-3 -13 -10 -37.5t-10 -36.5q-1 -9 -11 -43zM731 537 q6 -44 144 -31h2q-2 -13 -6 -127.5t-3 -175.5q0 -17 2 -17h19q8 -2 22 -2q13 0 15 2t2 13v37v249q1 3 2 10.5t2 10.5q8 1 28 1t29 1q20 5 23 12q10 18 -31 17h-45q-4 11 2 45q0 14 1 36.5t1 34.5q2 42 2 60q0 6 -2 8q-15 10 -33 16q-15 9 -23.5 7.5t-17.5 -13.5 q-3 -5 -61 -80t-70 -94q-9 -9 -4 -20zM786 537q63 85 101 141v-21q0 -21 -4 -45l-6 -69q-2 -6 -15 -6h-76z" />
<glyph unicode="&#xbf;" />
<glyph unicode="&#xd7;" />
<glyph unicode="&#xf7;" />
<glyph unicode="&#x2000;" horiz-adv-x="741" />
<glyph unicode="&#x2001;" horiz-adv-x="1483" />
<glyph unicode="&#x2002;" horiz-adv-x="741" />
<glyph unicode="&#x2003;" horiz-adv-x="1483" />
<glyph unicode="&#x2004;" horiz-adv-x="494" />
<glyph unicode="&#x2005;" horiz-adv-x="370" />
<glyph unicode="&#x2006;" horiz-adv-x="247" />
<glyph unicode="&#x2007;" horiz-adv-x="247" />
<glyph unicode="&#x2008;" horiz-adv-x="185" />
<glyph unicode="&#x2009;" horiz-adv-x="296" />
<glyph unicode="&#x200a;" horiz-adv-x="82" />
<glyph unicode="&#x2010;" horiz-adv-x="421" d="M20 649q0 33 13 35q20 4 26 4q55 2 113.5 1t127 -3t71.5 -2q12 2 22 -8q8 -9 7 -24t-11 -25q-15 -11 -24 -11h-72q-119 0 -178 2q-6 1 -31.5 2t-38.5 3q-22 3 -25 26z" />
<glyph unicode="&#x2011;" horiz-adv-x="421" d="M20 649q0 33 13 35q20 4 26 4q55 2 113.5 1t127 -3t71.5 -2q12 2 22 -8q8 -9 7 -24t-11 -25q-15 -11 -24 -11h-72q-119 0 -178 2q-6 1 -31.5 2t-38.5 3q-22 3 -25 26z" />
<glyph unicode="&#x2012;" horiz-adv-x="421" d="M20 649q0 33 13 35q20 4 26 4q55 2 113.5 1t127 -3t71.5 -2q12 2 22 -8q8 -9 7 -24t-11 -25q-15 -11 -24 -11h-72q-119 0 -178 2q-6 1 -31.5 2t-38.5 3q-22 3 -25 26z" />
<glyph unicode="&#x2013;" horiz-adv-x="466" d="M20 649q0 33 15 35q20 4 28 4q62 2 127.5 1t143 -3t80.5 -2q15 3 22 -8q10 -9 9 -23.5t-13 -25.5q-15 -11 -26 -11h-80q-133 0 -199 2q-6 0 -34.5 1.5t-43.5 3.5q-26 3 -29 26z" />
<glyph unicode="&#x2014;" horiz-adv-x="530" d="M20 649q0 33 17 35q24 4 33 4q71 2 146.5 1t164 -3t92.5 -2q16 3 27 -8q12 -9 11 -23.5t-15 -25.5q-18 -11 -33 -11h-90q-154 0 -230 2q-7 0 -40 1.5t-50 3.5q-27 2 -33 26z" />
<glyph unicode="&#x2018;" horiz-adv-x="165" d="M21.5 1080.5q1.5 40.5 21.5 62.5l2 2q23 22 48 22t44 -26q11 -19 7 -43t-21 -39q-20 -16 -31 -27q-18 -14 -18 -33l6 -20q0 -3 2.5 -15t5.5 -12l-18 9q-11 8 -17 16q-6 9 -20 37q-13 26 -11.5 66.5z" />
<glyph unicode="&#x2019;" horiz-adv-x="227" d="M52.5 1413.5q4.5 -24.5 21.5 -37.5l30 -26q19 -19 19 -33l-6 -23q0 -3 -2.5 -13.5t-5.5 -10.5q8 -2 18 8q6 4 16 14q4 6 10.5 18.5t10.5 18.5q13 26 11.5 67.5t-21.5 61.5l-2 2q-23 22 -48.5 23t-44.5 -25q-11 -20 -6.5 -44.5z" />
<glyph unicode="&#x201a;" />
<glyph unicode="&#x201c;" horiz-adv-x="309" d="M20 1044q2 40 23 62q2 0 2 2q23 22 48 22t44 -26q10 -21 5.5 -44t-19.5 -38q-20 -16 -31 -27q-20 -16 -18 -32q0 -3 2 -10.5t2 -10.5q1 -2 2.5 -8.5t3 -12.5t2.5 -6l-18 9q-8 5 -15 16q-4 5 -20 37q-15 27 -13 67zM164.5 1043.5q1.5 40.5 21.5 62.5q2 0 2 2 q23 22 48.5 22t44.5 -26q11 -20 6.5 -43.5t-21.5 -38.5q-15 -12 -30 -27q-21 -17 -19 -32l6 -21q0 -5 2.5 -16t5.5 -11q-2 0 -20 9q-10 10 -14 16q-7 8 -21 37q-13 26 -11.5 66.5z" />
<glyph unicode="&#x201d;" horiz-adv-x="309" d="M21.5 1062q4.5 -24 21.5 -38l31 -27q18 -15 16 -32q0 -9 -4 -21q0 -4 -2.5 -15t-5.5 -11q10 0 18 8q8 5 15 16q9 11 20 37q15 25 13.5 66t-23.5 63h-2q-21 23 -46.5 24t-43.5 -26q-12 -20 -7.5 -44zM165 1061.5q4 -24.5 21 -37.5l31 -27q19 -15 19 -32l-7 -21 q0 -4 -2.5 -15t-5.5 -11q11 0 19 8l16 16l20 37q13 25 11.5 66t-21.5 63h-2q-23 23 -48.5 24t-43.5 -26q-11 -20 -7 -44.5z" />
<glyph unicode="&#x201e;" />
<glyph unicode="&#x2022;" horiz-adv-x="405" d="M20 477q0 -44 57.5 -100.5t110.5 -67.5q53 -1 118 74.5t73 130.5q6 10 6 35q-7 61 -64.5 105t-119.5 44q-31 0 -106 -90t-75 -131z" />
<glyph unicode="&#x2026;" />
<glyph unicode="&#x202f;" horiz-adv-x="296" />
<glyph unicode="&#x2039;" />
<glyph unicode="&#x203a;" />
<glyph unicode="&#x2044;" horiz-adv-x="432" d="M2 172q-5 -20 4 -29q0 -1 23 -8q38 -4 57 12q6 5 16 35q14 32 17 45q6 25 142 506.5t151 548.5q18 64 20 82q4 20 -55 45h-10q-8 -4 -11 -12q-4 -7 -8 -25q-8 -23 -20 -63q-16 -47 -27 -86q-18 -53 -33 -105q-5 -20 -35 -117q-27 -96 -34 -127q-21 -64 -39 -129 q-30 -107 -35 -129q-34 -117 -35 -120l-31 -113q-9 -27 -26 -94q-3 -13 -10.5 -37t-10.5 -37q-2 -16 -10 -43z" />
<glyph unicode="&#x205f;" horiz-adv-x="370" />
<glyph unicode="&#x20ac;" horiz-adv-x="763" d="M43.5 606.5q-3.5 12.5 3.5 26.5q4 7 9.5 11.5t15.5 6.5t14.5 2.5t18.5 0t16 -0.5h63q0 13 4 45q-55 3 -108 19q-62 17 -27 47q11 10 30.5 12.5t48.5 0t32 -2.5h39q28 124 79.5 214t90.5 126q57 54 114 74.5t100.5 9.5t76.5 -44t48.5 -79t10 -103t-34.5 -110 q-6 -13 -24 -14.5t-29 12t0 37.5q15 32 16.5 68.5t-7.5 67t-28 49.5t-43.5 21t-56.5 -24.5t-63 -81.5q-49 -86 -72 -225q5 0 40 -3.5t52 -2.5q9 1 18 1t22.5 -0.5t23 -3t16.5 -7.5t7 -14t-9 -21q-7 -8 -20.5 -12t-22.5 -4.5t-29.5 0t-23.5 0.5l-82 -7q-4 -36 -4 -51 q37 -4 61 -2q12 1 26.5 0.5t33.5 -4t22 -13.5t-8 -28q-8 -11 -23.5 -15t-41 -3.5t-29.5 0.5q-14 -2 -43 -2q1 -98 18 -175t52.5 -121t84.5 -32q39 10 67 37.5t38.5 54t17.5 51t8 25.5q1 3 12 4.5t15 -0.5q18 -8 2 -68.5t-68 -120.5t-122 -63q-30 -2 -62 2.5t-79 27t-82 62.5 t-61.5 120t-27.5 189h-16q-5 0 -30.5 0.5t-43 3t-29.5 9.5q-14 8 -17.5 20.5z" />
<glyph unicode="&#x2122;" horiz-adv-x="1519" d="M53 1384q7 -12 41 -12q32 0 76 -4.5t72 -3.5q4 0 4 -207q0 -283 -2 -424q0 -266 -2 -399v-103v-28q-2 -16 5.5 -35t20.5 -25q22 -13 60.5 -11t52.5 26q4 10 4 37q4 86 4 127q3 208 0 417q0 72 -1 215t-1 213q0 2 -1 57t-1.5 93t0.5 49l72 6q63 5 86 21q6 3 9 11.5 t-1 14.5q-4 4 -11 6.5t-18.5 3.5t-13.5 1h-74h-121q-31 0 -178 -5q-4 0 -19 1t-25.5 0t-18.5 -5q-11 -5 -17.5 -16t-1.5 -21zM655 1188q-1 -59 1.5 -309.5t2.5 -270.5q1 -61 0 -156.5t0.5 -190t6.5 -103.5q11 -20 42 -24t58.5 9.5t28.5 36.5q1 74 1 101t-2 101.5t-3 100.5 q-6 196 -9 402l-2 71q-2 70 -2.5 115.5t2.5 61.5q12 -37 35.5 -124t34.5 -122q41 -131 127 -393q10 -31 28 -88.5t34 -104t32 -86.5q1 -1 5 -11t5.5 -13t5.5 -10t7.5 -10t9 -6t12.5 -3q14 -1 22.5 6.5t11.5 15t7 23.5q4 13 25 106l86 400q12 52 34 160.5t37 184t17 75.5 q4 -1 5.5 -86t3 -229t1.5 -171q0 -70 3 -245.5t3 -176.5q0 -52 19 -69q16 -11 36 -11t33 13q7 7 8 26t-1 43t-1 31l-6 490q-9 575 -18 634v7q-5 22 -12 29.5t-29 8.5q-10 1 -31.5 -0.5t-28.5 -1.5q-6 0 -15 0.5t-13.5 0.5t-10.5 -1.5t-10.5 -6.5t-9.5 -13q-6 -12 -11.5 -29 t-8 -29t-6 -33t-5.5 -30q-4 -21 -44.5 -229.5t-79.5 -405.5t-42 -209q1 4 -17 62.5t-46 147t-39 126.5q-81 287 -121 416q-16 54 -53 158q-4 8 -11.5 25.5t-11.5 25.5q-7 16 -16 20t-29 6q-42 4 -61 -8q-6 -4 -10 -8.5t-6.5 -11t-4 -11t-2 -12.5t-0.5 -12v-13.5v-11.5 q2 -50 -2 -151z" />
<glyph unicode="&#x25fc;" horiz-adv-x="860" d="M0 0v860h860v-860h-860z" />
<glyph />
<glyph horiz-adv-x="57" d="M0 866q0 -10 1 -30.5t1 -30.5q0 -20 10 -37q5 -11 17 -14t20 4q1 0 2 1t2 1q0 6 1 17.5t1 17.5q0 9 -1.5 40.5t-0.5 49.5q0 8 1.5 94t2.5 173t0 110q0 6 -1 18.5t-1 19.5q-1 7 -19.5 14.5t-23.5 4.5l-2 -2q-3 -3 -4.5 -27.5t-1.5 -56.5t-2 -43q0 -10 -1 -32t-1 -34v-258z " />
<glyph />
<glyph horiz-adv-x="270" d="M25 770q18 -59 100 -59q40 0 71 35.5t42.5 86t9.5 101t-29.5 86t-73.5 35.5q81 142 70 162q-8 13 -41 8q-10 -2 -104 -2q-5 0 -9.5 -0.5t-8.5 -3.5t-3 -9q2 -9 37 -18l76 2q-6 -13 -82 -143q-4 -7 0 -15q5 -17 37.5 -18.5t36.5 -3.5q30 -20 33 -77.5t-18 -113t-54 -71.5 q-14 -6 -30 2.5t-24 21.5q-20 31 21 117q7 15 4 18q-1 2 -2.5 3t-3 0t-3 -1.5t-4 -2.5t-3.5 -3q-1 0 -2 -1t-2 -1q-25 -20 -37.5 -62.5t-3.5 -72.5z" />
<glyph />
<glyph horiz-adv-x="235" d="M0 784q0 -34 16 -47q27 -22 61 -24.5t62 20.5q14 14 35 71t30.5 121t-14.5 103q-6 9 -16.5 16.5t-35 13t-56.5 -8.5q1 5 6 30.5t10 49t8 32.5q0 4 4 8.5t7 4.5q21 6 80 6q27 -6 32 8q11 22 0 26h-2q-4 3 -28 3q0 -1 -47 -1l-46 1q-47 0 -53 -19q-6 -20 -20 -84t-13 -72 q2 -11 20 -22.5t28 -5.5q3 3 26 9.5t29 6.5q41 0 32 -87q-8 -85 -45 -149q-21 -36 -40 -36q-34 0 -37 26q0 29 14 64q7 28 4 33q-11 15 -24 -8q-2 -2 -2 -3q-2 -6 -10 -25.5t-11.5 -33t-3.5 -27.5z" />
<glyph />
<glyph horiz-adv-x="200" d="M0 1184q3 -6 24 -8t42.5 -1t43.5 3t23 2q16 0 10 -17q-40 -58 -51 -96q0 -2 -9.5 -33t-17.5 -62.5t-18 -82t-11.5 -90.5t1.5 -90q1 -11 10 -17t16 -4q21 0 21 29q-4 87 19.5 188t44.5 152.5t32 68.5q1 1 11.5 18t9.5 27q0 28 -6 31q-6 6 -37 6q-76 0 -115 -2 q-32 0 -37 -4q-4 0 -4 -2q-2 -4 -2 -16z" />
<glyph />
<glyph />
</font>
</defs>
</svg>
